<svg width="44" height="37" viewBox="0 0 44 37" fill="none" xmlns="http://www.w3.org/2000/svg">
<path d="M34.5 0C36.8802 0 38.8093 1.92942 38.8096 4.30957V22.3633C38.082 22.128 37.306 22 36.5 22C32.3579 22 29 25.3579 29 29.5C29 31.4212 29.7232 33.173 30.9111 34.5H4.30957C1.92956 34.4998 0.000232179 32.5704 0 30.1904V4.30957C0.000231901 1.92956 1.92956 0.00023216 4.30957 0H34.5Z" fill="#FFE3E3"/>
<path d="M11.6673 23.9167C11.1632 23.9167 10.7317 23.7373 10.373 23.3786C10.0143 23.0199 9.8346 22.5881 9.83398 22.0833V11.0833C9.83398 10.5792 10.0137 10.1477 10.373 9.789C10.7323 9.43028 11.1638 9.25061 11.6673 9.25H26.334C26.8382 9.25 27.2699 9.42967 27.6292 9.789C27.9886 10.1483 28.1679 10.5798 28.1673 11.0833V22.0833C28.1673 22.5875 27.988 23.0193 27.6292 23.3786C27.2705 23.7379 26.8388 23.9173 26.334 23.9167H22.6673V24.8333C22.6673 25.0931 22.5793 25.3109 22.4033 25.4869C22.2273 25.6629 22.0098 25.7506 21.7507 25.75H16.2507C15.9909 25.75 15.7734 25.662 15.598 25.486C15.4226 25.31 15.3346 25.0924 15.334 24.8333V23.9167H11.6673ZM11.6673 22.0833H26.334V11.0833H11.6673V22.0833Z" fill="#F11010"/>
<circle cx="37" cy="30" r="6.25" fill="#F11010" stroke="white" stroke-width="0.5"/>
<path d="M39.6658 29.6656L37.3325 27.3322C37.2881 27.2897 37.2357 27.2564 37.1785 27.2342C37.0648 27.1875 36.9374 27.1875 36.8238 27.2342C36.7665 27.2564 36.7142 27.2897 36.6698 27.3322L34.3365 29.6656C34.293 29.7091 34.2584 29.7607 34.2349 29.8176C34.2113 29.8744 34.1992 29.9354 34.1992 29.9969C34.1992 30.1212 34.2486 30.2404 34.3365 30.3282C34.4243 30.4161 34.5435 30.4655 34.6678 30.4655C34.7921 30.4655 34.9113 30.4161 34.9991 30.3282L36.5345 28.7882V32.3302C36.5345 32.454 36.5836 32.5727 36.6711 32.6602C36.7587 32.7477 36.8774 32.7969 37.0011 32.7969C37.1249 32.7969 37.2436 32.7477 37.3311 32.6602C37.4186 32.5727 37.4678 32.454 37.4678 32.3302V28.7882L39.0031 30.3282C39.0465 30.372 39.0981 30.4067 39.155 30.4304C39.2119 30.4541 39.2729 30.4663 39.3345 30.4663C39.3961 30.4663 39.4571 30.4541 39.5139 30.4304C39.5708 30.4067 39.6224 30.372 39.6658 30.3282C39.7095 30.2848 39.7443 30.2332 39.7679 30.1764C39.7916 30.1195 39.8038 30.0585 39.8038 29.9969C39.8038 29.9353 39.7916 29.8743 39.7679 29.8174C39.7443 29.7606 39.7095 29.7089 39.6658 29.6656Z" fill="white"/>
</svg>
