<svg width="41" height="37" viewBox="0 0 41 37" fill="none" xmlns="http://www.w3.org/2000/svg">
<rect width="40.79" height="36.9956" rx="9.48605" fill="#EBF8FE"/>
<g clip-path="url(#clip0_3858_1748)">
<path fill-rule="evenodd" clip-rule="evenodd" d="M21.0195 27.4922C22.5885 27.4945 24.1303 27.0818 25.4883 26.2959V23.3672C25.4883 22.5467 25.1623 21.7598 24.5821 21.1796C24.002 20.5994 23.215 20.2734 22.3945 20.2734H19.6445C18.824 20.2734 18.0371 20.5994 17.4569 21.1796C16.8767 21.7598 16.5508 22.5467 16.5508 23.3672V26.2959C17.9088 27.0818 19.4505 27.4945 21.0195 27.4922ZM27.5508 23.3672V24.6556C28.7397 23.3827 29.5309 21.7902 29.827 20.0738C30.123 18.3574 29.9111 16.5919 29.2173 14.9943C28.5234 13.3967 27.3779 12.0367 25.9215 11.0813C24.4651 10.126 22.7613 9.61711 21.0195 9.61711C19.2778 9.61711 17.574 10.126 16.1176 11.0813C14.6612 12.0367 13.5156 13.3967 12.8218 14.9943C12.1279 16.5919 11.916 18.3574 12.2121 20.0738C12.5082 21.7902 13.2993 23.3827 14.4883 24.6556V23.3672C14.4879 22.3041 14.8161 21.2668 15.428 20.3974C16.0399 19.528 16.9056 18.869 17.9065 18.5107C17.3873 17.9135 17.0508 17.1795 16.9372 16.3963C16.8237 15.6132 16.9377 14.8139 17.2659 14.0938C17.594 13.3736 18.1224 12.7631 18.788 12.335C19.4535 11.9069 20.2282 11.6792 21.0195 11.6792C21.8109 11.6792 22.5856 11.9069 23.2511 12.335C23.9167 12.7631 24.445 13.3736 24.7732 14.0938C25.1013 14.8139 25.2154 15.6132 25.1018 16.3963C24.9882 17.1795 24.6517 17.9135 24.1325 18.5107C25.1335 18.869 25.9991 19.528 26.6111 20.3974C27.223 21.2668 27.5512 22.3041 27.5508 23.3672ZM21.0195 29.5547C23.9369 29.5547 26.7348 28.3958 28.7977 26.3329C30.8606 24.27 32.0195 21.4721 32.0195 18.5547C32.0195 15.6373 30.8606 12.8394 28.7977 10.7765C26.7348 8.71361 23.9369 7.55469 21.0195 7.55469C18.1021 7.55469 15.3043 8.71361 13.2414 10.7765C11.1785 12.8394 10.0195 15.6373 10.0195 18.5547C10.0195 21.4721 11.1785 24.27 13.2414 26.3329C15.3043 28.3958 18.1021 29.5547 21.0195 29.5547ZM23.082 15.8047C23.082 16.3517 22.8647 16.8763 22.4779 17.2631C22.0911 17.6499 21.5665 17.8672 21.0195 17.8672C20.4725 17.8672 19.9479 17.6499 19.5611 17.2631C19.1743 16.8763 18.957 16.3517 18.957 15.8047C18.957 15.2577 19.1743 14.7331 19.5611 14.3463C19.9479 13.9595 20.4725 13.7422 21.0195 13.7422C21.5665 13.7422 22.0911 13.9595 22.4779 14.3463C22.8647 14.7331 23.082 15.2577 23.082 15.8047Z" fill="#38BDF8"/>
</g>
<defs>
<clipPath id="clip0_3858_1748">
<rect width="22" height="22" fill="white" transform="translate(10.0195 7.55469)"/>
</clipPath>
</defs>
</svg>
