<svg width="27" height="27" viewBox="0 0 27 27" fill="none" xmlns="http://www.w3.org/2000/svg">
<rect width="27" height="26.2703" rx="7.2973" fill="#122354"/>
<g clip-path="url(#clip0_3886_10247)">
<path d="M12.7005 8.43472L8.02539 13.1342L12.7005 17.8336C12.7427 17.8891 12.7964 17.9348 12.8578 17.9677C12.9193 18.0006 12.987 18.02 13.0566 18.0244C13.1261 18.0288 13.1958 18.0183 13.261 17.9934C13.3261 17.9686 13.3851 17.9301 13.434 17.8804C13.4829 17.8308 13.5206 17.7712 13.5445 17.7058C13.5684 17.6403 13.578 17.5705 13.5726 17.501C13.5671 17.4315 13.5468 17.364 13.5131 17.3031C13.4793 17.2421 13.4328 17.1891 13.3767 17.1477L9.8789 13.6207H19.1854C19.3144 13.6207 19.4382 13.5694 19.5294 13.4782C19.6206 13.3869 19.6719 13.2632 19.6719 13.1342C19.6719 13.0052 19.6206 12.8814 19.5294 12.7902C19.4382 12.6989 19.3144 12.6477 19.1854 12.6477H9.8789L13.3767 9.12066C13.4677 9.02906 13.5185 8.90507 13.5181 8.77597C13.5176 8.64687 13.4659 8.52325 13.3743 8.43229C13.2827 8.34132 13.1587 8.29048 13.0296 8.29093C12.9005 8.29139 12.7769 8.34311 12.6859 8.43472H12.7005Z" fill="white"/>
</g>
<defs>
<clipPath id="clip0_3886_10247">
<rect width="17.5135" height="17.5135" fill="white" transform="matrix(0 -1 1 0 5.10742 21.8906)"/>
</clipPath>
</defs>
</svg>
