<svg width="39" height="35" viewBox="0 0 39 35" fill="none" xmlns="http://www.w3.org/2000/svg">
<rect width="38.8125" height="34.5" rx="4.3125" fill="#E0E4F1"/>
<rect width="22" height="22" transform="translate(8 5)" fill="#E0E4F1"/>
<path d="M27.0795 25.625H10.9205C10.5106 25.6246 10.1176 25.4616 9.82783 25.1717C9.53805 24.8818 9.37518 24.4887 9.375 24.0788V14.7969C9.375 14.3869 9.53778 13.9936 9.82758 13.7036C10.1174 13.4135 10.5105 13.2504 10.9205 13.25H27.0795C27.4894 13.2504 27.8824 13.4134 28.1722 13.7033C28.462 13.9932 28.6248 14.3863 28.625 14.7962V24.0781C28.6255 24.2813 28.5858 24.4825 28.5083 24.6703C28.4308 24.8581 28.317 25.0287 28.1734 25.1725C28.0298 25.3162 27.8593 25.4301 27.6716 25.5078C27.4839 25.5854 27.2826 25.6253 27.0795 25.625Z" fill="#00A6ED"/>
<path d="M24.0779 21.5H11.8596C11.7476 21.4995 11.6403 21.4546 11.5613 21.3753C11.4822 21.2959 11.4377 21.1885 11.4375 21.0765V19.1735C11.4375 18.9446 11.6245 18.75 11.8596 18.75H24.0779C24.3061 18.75 24.5 18.9377 24.5 19.1735V21.0834C24.4996 21.1384 24.4884 21.1929 24.467 21.2437C24.4456 21.2944 24.4144 21.3404 24.3752 21.3791C24.336 21.4178 24.2896 21.4484 24.2386 21.4691C24.1876 21.4899 24.1329 21.5004 24.0779 21.5Z" fill="#F4F4F4"/>
<path d="M25.4302 24.25H26.6636C26.7407 24.2503 26.817 24.2353 26.8883 24.2059C26.9596 24.1765 27.0243 24.1334 27.0788 24.0788C27.1334 24.0243 27.1765 23.9596 27.2059 23.8883C27.2353 23.817 27.2503 23.7407 27.25 23.6636V22.4302C27.2503 22.3531 27.2353 22.2767 27.2059 22.2054C27.1765 22.1342 27.1334 22.0694 27.0788 22.0149C27.0243 21.9604 26.9596 21.9172 26.8883 21.8878C26.817 21.8585 26.7407 21.8435 26.6636 21.8438H25.4302C25.3531 21.8435 25.2767 21.8585 25.2054 21.8878C25.1342 21.9172 25.0694 21.9604 25.0149 22.0149C24.9604 22.0694 24.9172 22.1342 24.8878 22.2054C24.8585 22.2767 24.8435 22.3531 24.8438 22.4302V23.6636C24.845 23.8187 24.9072 23.9671 25.0169 24.0769C25.1266 24.1866 25.275 24.2487 25.4302 24.25Z" fill="#FFF478"/>
<path d="M28.625 15.3125H9.375V17.375H28.625V15.3125Z" fill="#321B41"/>
<path d="M12.125 20.125C12.125 20.0338 12.1612 19.9464 12.2257 19.8819C12.2901 19.8175 12.3776 19.7812 12.4688 19.7812H20.0312C20.1224 19.7812 20.2099 19.8175 20.2743 19.8819C20.3388 19.9464 20.375 20.0338 20.375 20.125C20.375 20.2162 20.3388 20.3036 20.2743 20.3681C20.2099 20.4325 20.1224 20.4688 20.0312 20.4688H12.4688C12.3776 20.4688 12.2901 20.4325 12.2257 20.3681C12.1612 20.3036 12.125 20.2162 12.125 20.125Z" fill="#9B9B9B"/>
</svg>
