<svg width="14" height="14" viewBox="0 0 14 14" fill="none" xmlns="http://www.w3.org/2000/svg">
<path d="M6.70768 1.75C8.17742 1.75 9.58697 2.33385 10.6262 3.37312C11.6655 4.41238 12.2493 5.82193 12.2493 7.29167C12.2493 8.76141 11.6655 10.171 10.6262 11.2102C9.58697 12.2495 8.17742 12.8333 6.70768 12.8333C5.23794 12.8333 3.8284 12.2495 2.78913 11.2102C1.74987 10.171 1.16602 8.76141 1.16602 7.29167C1.16602 5.82193 1.74987 4.41238 2.78913 3.37312C3.8284 2.33385 5.23794 1.75 6.70768 1.75ZM6.70768 2.33333C5.39265 2.33333 4.13148 2.85573 3.20161 3.7856C2.27174 4.71546 1.74935 5.97663 1.74935 7.29167C1.74935 8.6067 2.27174 9.86787 3.20161 10.7977C4.13148 11.7276 5.39265 12.25 6.70768 12.25C7.35882 12.25 8.00358 12.1217 8.60515 11.8726C9.20673 11.6234 9.75333 11.2582 10.2138 10.7977C10.6742 10.3373 11.0394 9.79071 11.2886 9.18914C11.5378 8.58757 11.666 7.9428 11.666 7.29167C11.666 5.97663 11.1436 4.71546 10.2138 3.7856C9.28389 2.85573 8.02271 2.33333 6.70768 2.33333ZM6.41602 4.08333H6.99935V7.245L9.74102 8.82583L9.44935 9.33333L6.41602 7.58333V4.08333Z" fill="#AC6F08"/>
</svg>
