<svg width="390" height="106" viewBox="0 0 390 106" fill="none" xmlns="http://www.w3.org/2000/svg">
<rect y="29" width="390" height="77" fill="#122354"/>
<path d="M390 27.9996C355 31.9996 364.928 63.9996 334 63.9996C303.072 63.9996 309.5 27.9996 278 27.9996C298.5 27.9996 303.072 27.9996 334 27.9996C364.928 27.9996 367 28.9996 390 27.9996Z" fill="white"/>
<path d="M357.086 28C357.086 40.7025 346.788 51 334.086 51C321.383 51 311.086 40.7025 311.086 28C311.086 15.2975 321.383 5 334.086 5C346.788 5 357.086 15.2975 357.086 28Z" fill="white"/>
<circle cx="334" cy="28" r="23" fill="#122354"/>
<path d="M49 60L51 58M51 58L58 51L65 58M51 58V68C51 68.2652 51.1054 68.5196 51.2929 68.7071C51.4804 68.8946 51.7348 69 52 69H55M65 58L67 60M65 58V68C65 68.2652 64.8946 68.5196 64.7071 68.7071C64.5196 68.8946 64.2652 69 64 69H61M55 69C55.2652 69 55.5196 68.8946 55.7071 68.7071C55.8946 68.5196 56 68.2652 56 68V64C56 63.7348 56.1054 63.4804 56.2929 63.2929C56.4804 63.1054 56.7348 63 57 63H59C59.2652 63 59.5196 63.1054 59.7071 63.2929C59.8946 63.4804 60 63.7348 60 64V68C60 68.2652 60.1054 68.5196 60.2929 68.7071C60.4804 68.8946 60.7348 69 61 69M55 69H61" stroke="#878787" stroke-linecap="round" stroke-linejoin="round"/>
<path d="M328.817 76.084C328.817 76.78 328.577 77.36 328.097 77.824C327.625 78.28 326.901 78.508 325.925 78.508H324.317V82H323.225V73.636H325.925C326.869 73.636 327.585 73.864 328.073 74.32C328.569 74.776 328.817 75.364 328.817 76.084ZM325.925 77.608C326.533 77.608 326.981 77.476 327.269 77.212C327.557 76.948 327.701 76.572 327.701 76.084C327.701 75.052 327.109 74.536 325.925 74.536H324.317V77.608H325.925ZM331.266 76.492C331.458 76.116 331.73 75.824 332.082 75.616C332.442 75.408 332.878 75.304 333.39 75.304V76.432H333.102C331.878 76.432 331.266 77.096 331.266 78.424V82H330.174V75.424H331.266V76.492ZM337.519 82.108C336.903 82.108 336.343 81.968 335.839 81.688C335.343 81.408 334.951 81.012 334.663 80.5C334.383 79.98 334.243 79.38 334.243 78.7C334.243 78.028 334.387 77.436 334.675 76.924C334.971 76.404 335.371 76.008 335.875 75.736C336.379 75.456 336.943 75.316 337.567 75.316C338.191 75.316 338.755 75.456 339.259 75.736C339.763 76.008 340.159 76.4 340.447 76.912C340.743 77.424 340.891 78.02 340.891 78.7C340.891 79.38 340.739 79.98 340.435 80.5C340.139 81.012 339.735 81.408 339.223 81.688C338.711 81.968 338.143 82.108 337.519 82.108ZM337.519 81.148C337.911 81.148 338.279 81.056 338.623 80.872C338.967 80.688 339.243 80.412 339.451 80.044C339.667 79.676 339.775 79.228 339.775 78.7C339.775 78.172 339.671 77.724 339.463 77.356C339.255 76.988 338.983 76.716 338.647 76.54C338.311 76.356 337.947 76.264 337.555 76.264C337.155 76.264 336.787 76.356 336.451 76.54C336.123 76.716 335.859 76.988 335.659 77.356C335.459 77.724 335.359 78.172 335.359 78.7C335.359 79.236 335.455 79.688 335.647 80.056C335.847 80.424 336.111 80.7 336.439 80.884C336.767 81.06 337.127 81.148 337.519 81.148ZM345.002 76.324H343.622V82H342.53V76.324H341.678V75.424H342.53V74.956C342.53 74.22 342.718 73.684 343.094 73.348C343.478 73.004 344.09 72.832 344.93 72.832V73.744C344.45 73.744 344.11 73.84 343.91 74.032C343.718 74.216 343.622 74.524 343.622 74.956V75.424H345.002V76.324ZM346.84 74.356C346.632 74.356 346.456 74.284 346.312 74.14C346.168 73.996 346.096 73.82 346.096 73.612C346.096 73.404 346.168 73.228 346.312 73.084C346.456 72.94 346.632 72.868 346.84 72.868C347.04 72.868 347.208 72.94 347.344 73.084C347.488 73.228 347.56 73.404 347.56 73.612C347.56 73.82 347.488 73.996 347.344 74.14C347.208 74.284 347.04 74.356 346.84 74.356ZM347.368 75.424V82H346.276V75.424H347.368ZM350.321 73.12V82H349.229V73.12H350.321ZM358.182 78.46C358.182 78.668 358.17 78.888 358.146 79.12H352.89C352.93 79.768 353.15 80.276 353.55 80.644C353.958 81.004 354.45 81.184 355.026 81.184C355.498 81.184 355.89 81.076 356.202 80.86C356.522 80.636 356.746 80.34 356.874 79.972H358.05C357.874 80.604 357.522 81.12 356.994 81.52C356.466 81.912 355.81 82.108 355.026 82.108C354.402 82.108 353.842 81.968 353.346 81.688C352.858 81.408 352.474 81.012 352.194 80.5C351.914 79.98 351.774 79.38 351.774 78.7C351.774 78.02 351.91 77.424 352.182 76.912C352.454 76.4 352.834 76.008 353.322 75.736C353.818 75.456 354.386 75.316 355.026 75.316C355.65 75.316 356.202 75.452 356.682 75.724C357.162 75.996 357.53 76.372 357.786 76.852C358.05 77.324 358.182 77.86 358.182 78.46ZM357.054 78.232C357.054 77.816 356.962 77.46 356.778 77.164C356.594 76.86 356.342 76.632 356.022 76.48C355.71 76.32 355.362 76.24 354.978 76.24C354.426 76.24 353.954 76.416 353.562 76.768C353.178 77.12 352.958 77.608 352.902 78.232H357.054Z" fill="white"/>
<path d="M138 54H156M142 59H143M147 59H148M141 63H153C153.796 63 154.559 62.6839 155.121 62.1213C155.684 61.5587 156 60.7956 156 60V52C156 51.2044 155.684 50.4413 155.121 49.8787C154.559 49.3161 153.796 49 153 49H141C140.204 49 139.441 49.3161 138.879 49.8787C138.316 50.4413 138 51.2044 138 52V60C138 60.7956 138.316 61.5587 138.879 62.1213C139.441 62.6839 140.204 63 141 63Z" stroke="#878787" stroke-linecap="round" stroke-linejoin="round"/>
<path d="M254 52V56L257 59M263 56C263 57.1819 262.767 58.3522 262.315 59.4442C261.863 60.5361 261.2 61.5282 260.364 62.364C259.528 63.1997 258.536 63.8626 257.444 64.3149C256.352 64.7672 255.182 65 254 65C252.818 65 251.648 64.7672 250.556 64.3149C249.464 63.8626 248.472 63.1997 247.636 62.364C246.8 61.5282 246.137 60.5361 245.685 59.4442C245.233 58.3522 245 57.1819 245 56C245 53.6131 245.948 51.3239 247.636 49.636C249.324 47.9482 251.613 47 254 47C256.387 47 258.676 47.9482 260.364 49.636C262.052 51.3239 263 53.6131 263 56Z" stroke="#878787" stroke-linecap="round" stroke-linejoin="round"/>
<path d="M327.121 34.804C329.219 33.6179 331.59 32.9963 334 33C336.5 33 338.847 33.655 340.879 34.804M337 27C337 27.7956 336.684 28.5587 336.121 29.1213C335.559 29.6839 334.796 30 334 30C333.204 30 332.441 29.6839 331.879 29.1213C331.316 28.5587 331 27.7956 331 27C331 26.2044 331.316 25.4413 331.879 24.8787C332.441 24.3161 333.204 24 334 24C334.796 24 335.559 24.3161 336.121 24.8787C336.684 25.4413 337 26.2044 337 27ZM343 29C343 30.1819 342.767 31.3522 342.315 32.4442C341.863 33.5361 341.2 34.5282 340.364 35.364C339.528 36.1997 338.536 36.8626 337.444 37.3149C336.352 37.7672 335.182 38 334 38C332.818 38 331.648 37.7672 330.556 37.3149C329.464 36.8626 328.472 36.1997 327.636 35.364C326.8 34.5282 326.137 33.5361 325.685 32.4442C325.233 31.3522 325 30.1819 325 29C325 26.6131 325.948 24.3239 327.636 22.636C329.324 20.9482 331.613 20 334 20C336.387 20 338.676 20.9482 340.364 22.636C342.052 24.3239 343 26.6131 343 29Z" stroke="white" stroke-width="2" stroke-linecap="round" stroke-linejoin="round"/>
</svg>
