<svg width="390" height="106" viewBox="0 0 390 106" fill="none" xmlns="http://www.w3.org/2000/svg">
<rect y="29" width="390" height="77" fill="#122354"/>
<path d="M112 27.9996C77 31.9996 86.9279 63.9996 56 63.9996C25.0721 63.9996 31.5 27.9996 0 27.9996C20.5 27.9996 25.0721 27.9996 56 27.9996C86.9279 27.9996 89 28.9996 112 27.9996Z" fill="white"/>
<path d="M79.0858 28C79.0858 40.7025 68.7883 51 56.0858 51C43.3832 51 33.0858 40.7025 33.0858 28C33.0858 15.2975 43.3832 5 56.0858 5C68.7883 5 79.0858 15.2975 79.0858 28Z" fill="white"/>
<circle cx="56" cy="28" r="23" fill="#122354"/>
<path d="M56.7064 20.2928C56.5189 20.1053 56.2646 20 55.9994 20C55.7343 20 55.48 20.1053 55.2924 20.2928L48.2924 27.2928C48.1103 27.4814 48.0095 27.734 48.0118 27.9962C48.014 28.2584 48.1192 28.5092 48.3046 28.6946C48.49 28.88 48.7408 28.9852 49.003 28.9875C49.2652 28.9897 49.5178 28.8889 49.7064 28.7068L49.9994 28.4138V34.9998C49.9994 35.265 50.1048 35.5194 50.2923 35.7069C50.4799 35.8944 50.7342 35.9998 50.9994 35.9998H52.9994C53.2646 35.9998 53.519 35.8944 53.7065 35.7069C53.8941 35.5194 53.9994 35.265 53.9994 34.9998V32.9998C53.9994 32.7346 54.1048 32.4802 54.2923 32.2927C54.4799 32.1051 54.7342 31.9998 54.9994 31.9998H56.9994C57.2646 31.9998 57.519 32.1051 57.7065 32.2927C57.8941 32.4802 57.9994 32.7346 57.9994 32.9998V34.9998C57.9994 35.265 58.1048 35.5194 58.2923 35.7069C58.4799 35.8944 58.7342 35.9998 58.9994 35.9998H60.9994C61.2646 35.9998 61.519 35.8944 61.7065 35.7069C61.8941 35.5194 61.9994 35.265 61.9994 34.9998V28.4138L62.2924 28.7068C62.481 28.8889 62.7336 28.9897 62.9958 28.9875C63.258 28.9852 63.5088 28.88 63.6942 28.6946C63.8797 28.5092 63.9848 28.2584 63.9871 27.9962C63.9894 27.734 63.8886 27.4814 63.7064 27.2928L56.7064 20.2928Z" fill="white"/>
<path d="M46.4735 73.636V82H45.3815V78.208H41.1215V82H40.0295V73.636H41.1215V77.308H45.3815V73.636H46.4735ZM51.2061 82.108C50.5901 82.108 50.0301 81.968 49.5261 81.688C49.0301 81.408 48.6381 81.012 48.3501 80.5C48.0701 79.98 47.9301 79.38 47.9301 78.7C47.9301 78.028 48.0741 77.436 48.3621 76.924C48.6581 76.404 49.0581 76.008 49.5621 75.736C50.0661 75.456 50.6301 75.316 51.2541 75.316C51.8781 75.316 52.4421 75.456 52.9461 75.736C53.4501 76.008 53.8461 76.4 54.1341 76.912C54.4301 77.424 54.5781 78.02 54.5781 78.7C54.5781 79.38 54.4261 79.98 54.1221 80.5C53.8261 81.012 53.4221 81.408 52.9101 81.688C52.3981 81.968 51.8301 82.108 51.2061 82.108ZM51.2061 81.148C51.5981 81.148 51.9661 81.056 52.3101 80.872C52.6541 80.688 52.9301 80.412 53.1381 80.044C53.3541 79.676 53.4621 79.228 53.4621 78.7C53.4621 78.172 53.3581 77.724 53.1501 77.356C52.9421 76.988 52.6701 76.716 52.3341 76.54C51.9981 76.356 51.6341 76.264 51.2421 76.264C50.8421 76.264 50.4741 76.356 50.1381 76.54C49.8101 76.716 49.5461 76.988 49.3461 77.356C49.1461 77.724 49.0461 78.172 49.0461 78.7C49.0461 79.236 49.1421 79.688 49.3341 80.056C49.5341 80.424 49.7981 80.7 50.1261 80.884C50.4541 81.06 50.8141 81.148 51.2061 81.148ZM63.9218 75.304C64.4338 75.304 64.8898 75.412 65.2898 75.628C65.6898 75.836 66.0058 76.152 66.2378 76.576C66.4698 77 66.5858 77.516 66.5858 78.124V82H65.5058V78.28C65.5058 77.624 65.3418 77.124 65.0138 76.78C64.6938 76.428 64.2578 76.252 63.7058 76.252C63.1378 76.252 62.6858 76.436 62.3498 76.804C62.0138 77.164 61.8458 77.688 61.8458 78.376V82H60.7658V78.28C60.7658 77.624 60.6018 77.124 60.2738 76.78C59.9538 76.428 59.5178 76.252 58.9658 76.252C58.3978 76.252 57.9458 76.436 57.6098 76.804C57.2738 77.164 57.1058 77.688 57.1058 78.376V82H56.0138V75.424H57.1058V76.372C57.3218 76.028 57.6098 75.764 57.9698 75.58C58.3378 75.396 58.7418 75.304 59.1818 75.304C59.7338 75.304 60.2218 75.428 60.6458 75.676C61.0698 75.924 61.3858 76.288 61.5938 76.768C61.7778 76.304 62.0818 75.944 62.5058 75.688C62.9298 75.432 63.4018 75.304 63.9218 75.304ZM74.3771 78.46C74.3771 78.668 74.3651 78.888 74.3411 79.12H69.0851C69.1251 79.768 69.3451 80.276 69.7451 80.644C70.1531 81.004 70.6451 81.184 71.2211 81.184C71.6931 81.184 72.0851 81.076 72.3971 80.86C72.7171 80.636 72.9411 80.34 73.0691 79.972H74.2451C74.0691 80.604 73.7171 81.12 73.1891 81.52C72.6611 81.912 72.0051 82.108 71.2211 82.108C70.5971 82.108 70.0371 81.968 69.5411 81.688C69.0531 81.408 68.6691 81.012 68.3891 80.5C68.1091 79.98 67.9691 79.38 67.9691 78.7C67.9691 78.02 68.1051 77.424 68.3771 76.912C68.6491 76.4 69.0291 76.008 69.5171 75.736C70.0131 75.456 70.5811 75.316 71.2211 75.316C71.8451 75.316 72.3971 75.452 72.8771 75.724C73.3571 75.996 73.7251 76.372 73.9811 76.852C74.2451 77.324 74.3771 77.86 74.3771 78.46ZM73.2491 78.232C73.2491 77.816 73.1571 77.46 72.9731 77.164C72.7891 76.86 72.5371 76.632 72.2171 76.48C71.9051 76.32 71.5571 76.24 71.1731 76.24C70.6211 76.24 70.1491 76.416 69.7571 76.768C69.3731 77.12 69.1531 77.608 69.0971 78.232H73.2491Z" fill="white"/>
<path d="M138 54H156M142 59H143M147 59H148M141 63H153C153.796 63 154.559 62.6839 155.121 62.1213C155.684 61.5587 156 60.7956 156 60V52C156 51.2044 155.684 50.4413 155.121 49.8787C154.559 49.3161 153.796 49 153 49H141C140.204 49 139.441 49.3161 138.879 49.8787C138.316 50.4413 138 51.2044 138 52V60C138 60.7956 138.316 61.5587 138.879 62.1213C139.441 62.6839 140.204 63 141 63Z" stroke="#878787" stroke-linecap="round" stroke-linejoin="round"/>
<path d="M254 52V56L257 59M263 56C263 57.1819 262.767 58.3522 262.315 59.4442C261.863 60.5361 261.2 61.5282 260.364 62.364C259.528 63.1997 258.536 63.8626 257.444 64.3149C256.352 64.7672 255.182 65 254 65C252.818 65 251.648 64.7672 250.556 64.3149C249.464 63.8626 248.472 63.1997 247.636 62.364C246.8 61.5282 246.137 60.5361 245.685 59.4442C245.233 58.3522 245 57.1819 245 56C245 53.6131 245.948 51.3239 247.636 49.636C249.324 47.9482 251.613 47 254 47C256.387 47 258.676 47.9482 260.364 49.636C262.052 51.3239 263 53.6131 263 56Z" stroke="#878787" stroke-linecap="round" stroke-linejoin="round"/>
<path d="M344.121 61.804C346.219 60.6179 348.59 59.9963 351 60C353.5 60 355.847 60.655 357.879 61.804M354 54C354 54.7956 353.684 55.5587 353.121 56.1213C352.559 56.6839 351.796 57 351 57C350.204 57 349.441 56.6839 348.879 56.1213C348.316 55.5587 348 54.7956 348 54C348 53.2044 348.316 52.4413 348.879 51.8787C349.441 51.3161 350.204 51 351 51C351.796 51 352.559 51.3161 353.121 51.8787C353.684 52.4413 354 53.2044 354 54ZM360 56C360 57.1819 359.767 58.3522 359.315 59.4442C358.863 60.5361 358.2 61.5282 357.364 62.364C356.528 63.1997 355.536 63.8626 354.444 64.3149C353.352 64.7672 352.182 65 351 65C349.818 65 348.648 64.7672 347.556 64.3149C346.464 63.8626 345.472 63.1997 344.636 62.364C343.8 61.5282 343.137 60.5361 342.685 59.4442C342.233 58.3522 342 57.1819 342 56C342 53.6131 342.948 51.3239 344.636 49.636C346.324 47.9482 348.613 47 351 47C353.387 47 355.676 47.9482 357.364 49.636C359.052 51.3239 360 53.6131 360 56Z" stroke="#878787" stroke-linecap="round" stroke-linejoin="round"/>
</svg>
