<svg width="41" height="38" viewBox="0 0 41 38" fill="none" xmlns="http://www.w3.org/2000/svg">
<rect width="41" height="37.186" rx="9.53488" fill="#FEF5E7"/>
<g clip-path="url(#clip0_3663_2183)">
<path d="M31.0119 17.4453H10.357C10.0153 17.4453 9.73828 17.7223 9.73828 18.0641V28.5424C9.73828 28.8842 10.0153 29.1612 10.357 29.1612H31.0119C31.3537 29.1612 31.6307 28.8842 31.6307 28.5424V18.0641C31.6307 17.7223 31.3537 17.4453 31.0119 17.4453Z" fill="#FFB636"/>
<path d="M28.5973 22.0928H27.8406C27.7586 22.0928 27.6799 22.0602 27.6219 22.0022C27.5638 21.9442 27.5312 21.8655 27.5312 21.7834V19.7713C27.5312 19.6892 27.5638 19.6105 27.6219 19.5525C27.6799 19.4945 27.7586 19.4619 27.8406 19.4619H28.5973C28.6794 19.4619 28.7581 19.4945 28.8161 19.5525C28.8741 19.6105 28.9067 19.6892 28.9067 19.7713V21.7834C28.9067 21.8655 28.8741 21.9442 28.8161 22.0022C28.7581 22.0602 28.6794 22.0928 28.5973 22.0928ZM30.8895 21.7834V19.7713C30.8895 19.6892 30.8569 19.6105 30.7989 19.5525C30.7409 19.4945 30.6622 19.4619 30.5801 19.4619H29.8234C29.7414 19.4619 29.6627 19.4945 29.6047 19.5525C29.5466 19.6105 29.514 19.6892 29.514 19.7713V21.7834C29.514 21.8655 29.5466 21.9442 29.6047 22.0022C29.6627 22.0602 29.7414 22.0928 29.8234 22.0928H30.5801C30.6622 22.0928 30.7409 22.0602 30.7989 22.0022C30.8569 21.9442 30.8895 21.8655 30.8895 21.7834ZM11.977 21.7834V19.7713C11.977 19.6892 11.9444 19.6105 11.8864 19.5525C11.8284 19.4945 11.7497 19.4619 11.6677 19.4619H10.9109C10.8289 19.4619 10.7502 19.4945 10.6922 19.5525C10.6342 19.6105 10.6016 19.6892 10.6016 19.7713V21.7834C10.6016 21.8655 10.6342 21.9442 10.6922 22.0022C10.7502 22.0602 10.8289 22.0928 10.9109 22.0928H11.6677C11.7083 22.0928 11.7485 22.0848 11.7861 22.0693C11.8236 22.0537 11.8577 22.0309 11.8864 22.0022C11.9151 21.9735 11.9379 21.9394 11.9535 21.9018C11.969 21.8643 11.977 21.8241 11.977 21.7834ZM13.9598 21.7834V19.7713C13.9598 19.6892 13.9272 19.6105 13.8692 19.5525C13.8112 19.4945 13.7325 19.4619 13.6505 19.4619H12.8938C12.8117 19.4619 12.733 19.4945 12.675 19.5525C12.617 19.6105 12.5844 19.6892 12.5844 19.7713V21.7834C12.5844 21.8655 12.617 21.9442 12.675 22.0022C12.733 22.0602 12.8117 22.0928 12.8938 22.0928H13.6505C13.7325 22.0928 13.8112 22.0602 13.8692 22.0022C13.9272 21.9442 13.9598 21.8655 13.9598 21.7834ZM11.977 24.1767V23.5046C11.977 23.4226 11.9444 23.3439 11.8864 23.2859C11.8284 23.2278 11.7497 23.1953 11.6677 23.1953H10.9109C10.8289 23.1953 10.7502 23.2278 10.6922 23.2859C10.6342 23.3439 10.6016 23.4226 10.6016 23.5046V24.1767C10.6016 24.2588 10.6342 24.3375 10.6922 24.3955C10.7502 24.4535 10.8289 24.4861 10.9109 24.4861H11.6677C11.7083 24.4861 11.7485 24.4781 11.7861 24.4626C11.8236 24.447 11.8577 24.4242 11.8864 24.3955C11.9151 24.3668 11.9379 24.3327 11.9535 24.2951C11.969 24.2576 11.977 24.2174 11.977 24.1767ZM13.9598 24.1767V23.5046C13.9598 23.4226 13.9272 23.3439 13.8692 23.2859C13.8112 23.2278 13.7325 23.1953 13.6505 23.1953H12.8938C12.8117 23.1953 12.733 23.2278 12.675 23.2859C12.617 23.3439 12.5844 23.4226 12.5844 23.5046V24.1767C12.5844 24.2588 12.617 24.3375 12.675 24.3955C12.733 24.4535 12.8117 24.4861 12.8938 24.4861H13.6505C13.7325 24.4861 13.8112 24.4535 13.8692 24.3955C13.9272 24.3375 13.9598 24.2588 13.9598 24.1767ZM11.977 26.4986V25.8264C11.977 25.7444 11.9444 25.6657 11.8864 25.6077C11.8284 25.5497 11.7497 25.5171 11.6677 25.5171H10.9109C10.8289 25.5171 10.7502 25.5497 10.6922 25.6077C10.6342 25.6657 10.6016 25.7444 10.6016 25.8264V26.4986C10.6016 26.5806 10.6342 26.6593 10.6922 26.7173C10.7502 26.7753 10.8289 26.8079 10.9109 26.8079H11.6677C11.7083 26.8079 11.7485 26.7999 11.7861 26.7844C11.8236 26.7688 11.8577 26.7461 11.8864 26.7173C11.9151 26.6886 11.9379 26.6545 11.9535 26.617C11.969 26.5794 11.977 26.5392 11.977 26.4986ZM13.9598 26.4986V25.8264C13.9598 25.7444 13.9272 25.6657 13.8692 25.6077C13.8112 25.5497 13.7325 25.5171 13.6505 25.5171H12.8938C12.8117 25.5171 12.733 25.5497 12.675 25.6077C12.617 25.6657 12.5844 25.7444 12.5844 25.8264V26.4986C12.5844 26.5806 12.617 26.6593 12.675 26.7173C12.733 26.7753 12.8117 26.8079 12.8938 26.8079H13.6505C13.7325 26.8079 13.8112 26.7753 13.8692 26.7173C13.9272 26.6593 13.9598 26.5806 13.9598 26.4986ZM28.9067 24.1767V23.5046C28.9067 23.4226 28.8741 23.3439 28.8161 23.2859C28.7581 23.2278 28.6794 23.1953 28.5973 23.1953H27.8406C27.7586 23.1953 27.6799 23.2278 27.6219 23.2859C27.5638 23.3439 27.5312 23.4226 27.5312 23.5046V24.1767C27.5312 24.2588 27.5638 24.3375 27.6219 24.3955C27.6799 24.4535 27.7586 24.4861 27.8406 24.4861H28.5973C28.6794 24.4861 28.7581 24.4535 28.8161 24.3955C28.8741 24.3375 28.9067 24.2588 28.9067 24.1767ZM30.8895 24.1767V23.5046C30.8895 23.4226 30.8569 23.3439 30.7989 23.2859C30.7409 23.2278 30.6622 23.1953 30.5801 23.1953H29.8234C29.7414 23.1953 29.6627 23.2278 29.6047 23.2859C29.5466 23.3439 29.514 23.4226 29.514 23.5046V24.1767C29.514 24.2588 29.5466 24.3375 29.6047 24.3955C29.6627 24.4535 29.7414 24.4861 29.8234 24.4861H30.5801C30.6622 24.4861 30.7409 24.4535 30.7989 24.3955C30.8569 24.3375 30.8895 24.2588 30.8895 24.1767ZM28.9067 26.4986V25.8264C28.9067 25.7444 28.8741 25.6657 28.8161 25.6077C28.7581 25.5497 28.6794 25.5171 28.5973 25.5171H27.8406C27.7586 25.5171 27.6799 25.5497 27.6219 25.6077C27.5638 25.6657 27.5312 25.7444 27.5312 25.8264V26.4986C27.5312 26.5806 27.5638 26.6593 27.6219 26.7173C27.6799 26.7753 27.7586 26.8079 27.8406 26.8079H28.5973C28.6794 26.8079 28.7581 26.7753 28.8161 26.7173C28.8741 26.6593 28.9067 26.5806 28.9067 26.4986ZM30.8895 26.4986V25.8264C30.8895 25.7444 30.8569 25.6657 30.7989 25.6077C30.7409 25.5497 30.6622 25.5171 30.5801 25.5171H29.8234C29.7414 25.5171 29.6627 25.5497 29.6047 25.6077C29.5466 25.6657 29.514 25.7444 29.514 25.8264V26.4986C29.514 26.5806 29.5466 26.6593 29.6047 26.7173C29.6627 26.7753 29.7414 26.8079 29.8234 26.8079H30.5801C30.6622 26.8079 30.7409 26.7753 30.7989 26.7173C30.8569 26.6593 30.8895 26.5806 30.8895 26.4986Z" fill="#D38E3C"/>
<path d="M26.3373 10.2666H15.324C15.1462 10.2666 15.002 10.4744 15.002 10.7307V28.6971C15.002 28.9534 15.1462 29.1612 15.324 29.1612H26.3373C26.5151 29.1612 26.6593 28.9534 26.6593 28.6971V10.7308C26.6593 10.4744 26.5152 10.2666 26.3373 10.2666Z" fill="#FFE1AB"/>
<path d="M17.1743 20.7751H16.2293C16.1472 20.7751 16.0686 20.7426 16.0105 20.6845C15.9525 20.6265 15.9199 20.5478 15.9199 20.4658V18.0936C15.9199 18.0115 15.9525 17.9328 16.0105 17.8748C16.0686 17.8168 16.1472 17.7842 16.2293 17.7842H17.1743C17.2563 17.7842 17.335 17.8168 17.393 17.8748C17.451 17.9328 17.4836 18.0115 17.4836 18.0936V20.4658C17.4836 20.5478 17.451 20.6265 17.393 20.6845C17.335 20.7426 17.2563 20.7751 17.1743 20.7751ZM19.7378 20.4658V18.0936C19.7378 18.0115 19.7052 17.9328 19.6472 17.8748C19.5891 17.8168 19.5105 17.7842 19.4284 17.7842H18.4834C18.4014 17.7842 18.3227 17.8168 18.2647 17.8748C18.2067 17.9328 18.1741 18.0115 18.1741 18.0936V20.4658C18.1741 20.5478 18.2067 20.6265 18.2647 20.6845C18.3227 20.7426 18.4014 20.7751 18.4834 20.7751H19.4284C19.5105 20.7751 19.5891 20.7426 19.6472 20.6845C19.7052 20.6265 19.7378 20.5478 19.7378 20.4658ZM23.434 20.4658V18.0936C23.434 18.0115 23.4014 17.9328 23.3434 17.8748C23.2854 17.8168 23.2067 17.7842 23.1247 17.7842H22.1797C22.0977 17.7842 22.019 17.8168 21.961 17.8748C21.903 17.9328 21.8704 18.0115 21.8704 18.0936V20.4658C21.8704 20.5478 21.903 20.6265 21.961 20.6845C22.019 20.7426 22.0977 20.7751 22.1797 20.7751H23.1247C23.2067 20.7751 23.2854 20.7426 23.3434 20.6845C23.4014 20.6265 23.434 20.5478 23.434 20.4658ZM25.6882 20.4658V18.0936C25.6882 18.0115 25.6556 17.9328 25.5976 17.8748C25.5396 17.8168 25.4609 17.7842 25.3788 17.7842H24.4339C24.3518 17.7842 24.2731 17.8168 24.2151 17.8748C24.1571 17.9328 24.1245 18.0115 24.1245 18.0936V20.4658C24.1245 20.5478 24.1571 20.6265 24.2151 20.6845C24.2731 20.7426 24.3518 20.7751 24.4339 20.7751H25.3788C25.4609 20.7751 25.5396 20.7426 25.5976 20.6845C25.6556 20.6265 25.6882 20.5478 25.6882 20.4658ZM17.4836 22.9919V22.3197C17.4836 22.2377 17.451 22.159 17.393 22.101C17.335 22.043 17.2563 22.0104 17.1743 22.0104H16.2293C16.1472 22.0104 16.0686 22.043 16.0105 22.101C15.9525 22.159 15.9199 22.2377 15.9199 22.3197V22.9919C15.9199 23.0739 15.9525 23.1526 16.0105 23.2106C16.0686 23.2686 16.1472 23.3012 16.2293 23.3012H17.1743C17.2563 23.3012 17.335 23.2686 17.393 23.2106C17.451 23.1526 17.4836 23.0739 17.4836 22.9919ZM19.7378 22.9919V22.3197C19.7378 22.2377 19.7052 22.159 19.6472 22.101C19.5891 22.043 19.5105 22.0104 19.4284 22.0104H18.4834C18.4014 22.0104 18.3227 22.043 18.2647 22.101C18.2067 22.159 18.1741 22.2377 18.1741 22.3197V22.9919C18.1741 23.0739 18.2067 23.1526 18.2647 23.2106C18.3227 23.2686 18.4014 23.3012 18.4834 23.3012H19.4284C19.5105 23.3012 19.5891 23.2686 19.6472 23.2106C19.7052 23.1526 19.7378 23.0739 19.7378 22.9919ZM23.434 22.9919V22.3197C23.434 22.2377 23.4014 22.159 23.3434 22.101C23.2854 22.043 23.2067 22.0104 23.1247 22.0104H22.1797C22.0977 22.0104 22.019 22.043 21.961 22.101C21.903 22.159 21.8704 22.2377 21.8704 22.3197V22.9919C21.8704 23.0739 21.903 23.1526 21.961 23.2106C22.019 23.2686 22.0977 23.3012 22.1797 23.3012H23.1247C23.2067 23.3012 23.2854 23.2686 23.3434 23.2106C23.4014 23.1526 23.434 23.0739 23.434 22.9919ZM25.6882 22.9919V22.3197C25.6882 22.2377 25.6556 22.159 25.5976 22.101C25.5396 22.043 25.4609 22.0104 25.3788 22.0104H24.4339C24.3518 22.0104 24.2731 22.043 24.2151 22.101C24.1571 22.159 24.1245 22.2377 24.1245 22.3197V22.9919C24.1245 23.0739 24.1571 23.1526 24.2151 23.2106C24.2731 23.2686 24.3518 23.3012 24.4339 23.3012H25.3788C25.4609 23.3012 25.5396 23.2686 25.5976 23.2106C25.6556 23.1526 25.6882 23.0739 25.6882 22.9919ZM17.4836 25.4822V24.8101C17.4836 24.728 17.451 24.6493 17.393 24.5913C17.335 24.5333 17.2563 24.5007 17.1743 24.5007H16.2293C16.1472 24.5007 16.0686 24.5333 16.0105 24.5913C15.9525 24.6493 15.9199 24.728 15.9199 24.8101V25.4822C15.9199 25.5643 15.9525 25.6429 16.0105 25.701C16.0686 25.759 16.1472 25.7916 16.2293 25.7916H17.1743C17.2563 25.7916 17.335 25.759 17.393 25.701C17.451 25.6429 17.4836 25.5643 17.4836 25.4822ZM25.6882 25.4822V24.8101C25.6882 24.728 25.6556 24.6493 25.5976 24.5913C25.5396 24.5333 25.4609 24.5007 25.3788 24.5007H24.4339C24.3518 24.5007 24.2731 24.5333 24.2151 24.5913C24.1571 24.6493 24.1245 24.728 24.1245 24.8101V25.4822C24.1245 25.5643 24.1571 25.6429 24.2151 25.701C24.2731 25.759 24.3518 25.7916 24.4339 25.7916H25.3788C25.4609 25.7916 25.5396 25.759 25.5976 25.701C25.6556 25.6429 25.6882 25.5643 25.6882 25.4822ZM17.4836 27.7395V27.0674C17.4836 26.9853 17.451 26.9066 17.393 26.8486C17.335 26.7906 17.2563 26.758 17.1743 26.758H16.2293C16.1472 26.758 16.0686 26.7906 16.0105 26.8486C15.9525 26.9066 15.9199 26.9853 15.9199 27.0674V27.7395C15.9199 27.8215 15.9525 27.9002 16.0105 27.9582C16.0686 28.0163 16.1472 28.0489 16.2293 28.0489H17.1743C17.2563 28.0489 17.335 28.0163 17.393 27.9582C17.451 27.9002 17.4836 27.8215 17.4836 27.7395ZM25.6882 27.7395V27.0674C25.6882 26.9853 25.6556 26.9066 25.5976 26.8486C25.5396 26.7906 25.4609 26.758 25.3788 26.758H24.4339C24.3518 26.758 24.2731 26.7906 24.2151 26.8486C24.1571 26.9066 24.1245 26.9853 24.1245 27.0674V27.7395C24.1245 27.8215 24.1571 27.9002 24.2151 27.9582C24.2731 28.0163 24.3518 28.0489 24.4339 28.0489H25.3788C25.4609 28.0489 25.5396 28.0163 25.5976 27.9582C25.6556 27.9002 25.6882 27.8215 25.6882 27.7395Z" fill="#E2A042"/>
<path d="M18.5898 24.585H23.0743V29.1607H18.5898V24.585Z" fill="#2B3B47"/>
<path d="M20.8324 16.783C22.194 16.783 23.2977 15.6793 23.2977 14.3178C23.2977 12.9563 22.194 11.8525 20.8324 11.8525C19.4709 11.8525 18.3672 12.9563 18.3672 14.3178C18.3672 15.6793 19.4709 16.783 20.8324 16.783Z" fill="#FF473E"/>
<path d="M20.8315 16.2186C21.8807 16.2186 22.7313 15.368 22.7313 14.3188C22.7313 13.2695 21.8807 12.4189 20.8315 12.4189C19.7822 12.4189 18.9316 13.2695 18.9316 14.3188C18.9316 15.368 19.7822 16.2186 20.8315 16.2186Z" fill="#F4F3EF"/>
<path d="M23.4229 24.3357V24.8349C23.4229 24.917 23.3903 24.9956 23.3323 25.0537C23.2743 25.1117 23.1956 25.1443 23.1136 25.1443H20.9687V29.1531H20.6953V25.1443H18.5505C18.4684 25.1443 18.3897 25.1117 18.3317 25.0537C18.2737 24.9956 18.2411 24.917 18.2411 24.8349V24.3357C18.2411 24.2537 18.2737 24.175 18.3317 24.117C18.3897 24.059 18.4684 24.0264 18.5505 24.0264H23.1136C23.1956 24.0264 23.2743 24.059 23.3323 24.117C23.3903 24.175 23.4229 24.2537 23.4229 24.3357ZM26.9531 10.8053V10.2566C26.9531 10.1746 26.9205 10.0959 26.8625 10.0379C26.8044 9.97986 26.7258 9.94727 26.6437 9.94727H15.0203C14.9383 9.94727 14.8596 9.97986 14.8016 10.0379C14.7435 10.0959 14.7109 10.1746 14.7109 10.2566V10.8053C14.7109 10.8874 14.7435 10.9661 14.8016 11.0241C14.8596 11.0821 14.9383 11.1147 15.0203 11.1147H26.6437C26.7258 11.1147 26.8044 11.0821 26.8625 11.0241C26.9205 10.9661 26.9531 10.8874 26.9531 10.8053ZM22.3292 14.4997C22.3292 14.4448 22.3073 14.392 22.2685 14.3532C22.2296 14.3143 22.1769 14.2925 22.1219 14.2925H21.0061V13.0904C21.0061 13.0355 20.9842 12.9828 20.9454 12.9439C20.9065 12.905 20.8538 12.8832 20.7988 12.8832C20.7439 12.8832 20.6912 12.905 20.6523 12.9439C20.6134 12.9828 20.5916 13.0355 20.5916 13.0904V14.4997C20.5916 14.5547 20.6134 14.6074 20.6523 14.6463C20.6912 14.6851 20.7439 14.707 20.7988 14.707H22.1219C22.1769 14.707 22.2296 14.6851 22.2685 14.6463C22.3073 14.6074 22.3292 14.5547 22.3292 14.4997Z" fill="#597B91"/>
</g>
<defs>
<clipPath id="clip0_3663_2183">
<rect width="22" height="22" fill="white" transform="translate(9.68359 7.2041)"/>
</clipPath>
</defs>
</svg>
