<svg width="16" height="16" viewBox="0 0 16 16" fill="none" xmlns="http://www.w3.org/2000/svg">
<path fill-rule="evenodd" clip-rule="evenodd" d="M12.446 11.3153L14.2827 13.152L13.7167 13.7173L2.56602 2.56667L3.13068 2L5.03402 3.90333C5.95402 3.53533 6.95402 3.33333 7.99935 3.33333C11.2047 3.33333 13.9807 5.232 15.3327 8C14.6805 9.34087 13.6844 10.4848 12.446 11.3153ZM5.65668 4.52667L6.76602 5.636C7.26931 5.37289 7.84345 5.27732 8.40483 5.36322C8.96622 5.44913 9.48551 5.71201 9.88709 6.11359C10.2887 6.51517 10.5516 7.03446 10.6375 7.59585C10.7234 8.15723 10.6278 8.73138 10.3647 9.23467L11.868 10.738C12.9173 10.0713 13.804 9.136 14.4313 8.00067C13.1234 5.63333 10.6887 4.13333 7.99935 4.13333C7.20207 4.13383 6.41041 4.26675 5.65668 4.52667ZM9.75802 8.628C9.87698 8.29514 9.89899 7.93534 9.82148 7.59046C9.74396 7.24558 9.57012 6.92979 9.32017 6.67984C9.07022 6.42989 8.75444 6.25605 8.40956 6.17854C8.06468 6.10103 7.70488 6.12304 7.37202 6.242L9.75802 8.628ZM10.9647 12.0973C10.0447 12.4653 9.04468 12.6673 7.99935 12.6673C4.79402 12.6673 2.01802 10.7687 0.666016 8.00067C1.31823 6.6598 2.31429 5.51582 3.55268 4.68533L4.13068 5.26333C3.06035 5.94627 2.17889 6.88733 1.56735 8C2.87535 10.3667 5.31002 11.8667 7.99935 11.8667C8.79663 11.8662 9.58829 11.7332 10.342 11.4733L10.9647 12.0973ZM5.63468 6.76667L6.24068 7.37333C6.12172 7.7062 6.09971 8.066 6.17722 8.41088C6.25473 8.75576 6.42858 9.07154 6.67853 9.32149C6.92848 9.57144 7.24426 9.74528 7.58914 9.82279C7.93402 9.9003 8.29382 9.8783 8.62668 9.75933L9.23335 10.3647C8.73006 10.6278 8.15591 10.7233 7.59453 10.6374C7.03315 10.5515 6.51385 10.2887 6.11227 9.88708C5.7107 9.4855 5.44781 8.9662 5.36191 8.40482C5.276 7.84344 5.37157 7.26996 5.63468 6.76667Z" fill="#757575"/>
</svg>
