<svg width="44" height="37" viewBox="0 0 44 37" fill="none" xmlns="http://www.w3.org/2000/svg">
<path d="M34.5 0C36.8802 0 38.8093 1.92942 38.8096 4.30957V22.3633C38.082 22.128 37.306 22 36.5 22C32.3579 22 29 25.3579 29 29.5C29 31.4212 29.7232 33.173 30.9111 34.5H4.30957C1.92956 34.4998 0.000232179 32.5704 0 30.1904V4.30957C0.000231901 1.92956 1.92956 0.00023216 4.30957 0H34.5Z" fill="#FFE3E3"/>
<path d="M18.9993 9.25L8.91602 14.75L12.5827 16.7483V22.2483L18.9993 25.75L25.416 22.2483V16.7483L27.2493 15.7492V22.0833H29.0827V14.75L18.9993 9.25ZM25.251 14.75L18.9993 18.16L12.7477 14.75L18.9993 11.34L25.251 14.75ZM23.5827 21.1667L18.9993 23.66L14.416 21.1667V17.7475L18.9993 20.25L23.5827 17.7475V21.1667Z" fill="#F11010"/>
<circle cx="37" cy="30" r="6.25" fill="#F11010" stroke="white" stroke-width="0.5"/>
<path d="M39.6658 30.3305L37.3325 32.6639C37.2881 32.7064 37.2357 32.7397 37.1785 32.7619C37.0648 32.8085 36.9374 32.8085 36.8238 32.7619C36.7665 32.7397 36.7142 32.7064 36.6698 32.6639L34.3365 30.3305C34.293 30.287 34.2584 30.2354 34.2349 30.1785C34.2113 30.1217 34.1992 30.0607 34.1992 29.9992C34.1992 29.8749 34.2486 29.7557 34.3365 29.6679C34.4243 29.58 34.5435 29.5306 34.6678 29.5306C34.7921 29.5306 34.9113 29.58 34.9991 29.6679L36.5345 31.2079V27.6659C36.5345 27.5421 36.5836 27.4234 36.6711 27.3359C36.7587 27.2484 36.8774 27.1992 37.0011 27.1992C37.1249 27.1992 37.2436 27.2484 37.3311 27.3359C37.4186 27.4234 37.4678 27.5421 37.4678 27.6659V31.2079L39.0031 29.6679C39.0465 29.6241 39.0981 29.5894 39.155 29.5657C39.2119 29.542 39.2729 29.5298 39.3345 29.5298C39.3961 29.5298 39.4571 29.542 39.5139 29.5657C39.5708 29.5894 39.6224 29.6241 39.6658 29.6679C39.7095 29.7113 39.7443 29.7629 39.7679 29.8197C39.7916 29.8766 39.8038 29.9376 39.8038 29.9992C39.8038 30.0608 39.7916 30.1218 39.7679 30.1787C39.7443 30.2355 39.7095 30.2872 39.6658 30.3305Z" fill="white"/>
</svg>
