<svg width="41" height="38" viewBox="0 0 41 38" fill="none" xmlns="http://www.w3.org/2000/svg">
<rect width="41" height="37.186" rx="9.53488" fill="#E0E4F1"/>
<g clip-path="url(#clip0_3663_2149)">
<path d="M27.0997 23.3064C27.0997 23.3064 24.5027 25.7436 21.0686 25.7436C17.6345 25.7436 15.0392 23.3064 15.0392 23.3064C15.0392 23.3064 14.5562 20.9879 15.8041 16.9849C16.4623 14.8743 25.8295 14.6594 26.5634 16.5054C27.8112 19.6386 27.0997 23.3064 27.0997 23.3064Z" fill="#424242"/>
<path d="M15.0388 23.3064L15.8621 23.9664C15.8621 23.9664 15.8552 22.6602 16.2591 21.4416C16.4104 20.9861 16.9501 20.7953 17.3557 21.0514L20.4993 23.0228C20.6716 23.1307 20.8705 23.1886 21.0739 23.1901C21.2772 23.1917 21.4769 23.1367 21.6509 23.0314C23.153 22.1205 27.0718 19.7366 27.2505 19.5905C27.2505 19.5905 27.2505 19.2966 27.1766 18.9219L14.9941 18.9373L15.0388 23.3064Z" fill="#212121"/>
<path d="M31.1813 16.5358L21.4188 22.3504C21.2057 22.4775 20.9393 22.4775 20.7245 22.3504L10.9654 16.5358C10.6938 16.3743 10.6938 15.9807 10.9654 15.8191L20.7279 10.0046C20.941 9.87738 21.2074 9.87738 21.4223 10.0046L31.1848 15.8191C31.4546 15.9807 31.4546 16.3743 31.1813 16.5358Z" fill="#424242"/>
<path d="M21.0821 21.9246C21.0804 21.9246 21.0769 21.9264 21.0752 21.9264C21.0477 21.9264 21.0202 21.9195 20.9961 21.904L10.7936 16.0225C10.7936 16.0225 10.7438 16.117 10.7936 16.2871C10.8452 16.4573 10.9243 16.5123 10.9672 16.5381L20.7297 22.3526C20.8363 22.4162 20.9566 22.4489 21.0769 22.4489H21.0838V21.9246H21.0821Z" fill="#9E9E9E"/>
<path d="M21.074 21.9246C21.0757 21.9246 21.0791 21.9264 21.0809 21.9264C21.1084 21.9264 21.1359 21.9195 21.1599 21.904L31.3624 16.0225C31.3624 16.0225 31.4123 16.117 31.3624 16.2871C31.3109 16.4573 31.2318 16.5123 31.1888 16.5381L21.4263 22.3526C21.3198 22.4162 21.1995 22.4489 21.0791 22.4489H21.0723V21.9246H21.074Z" fill="#616161"/>
<path d="M16.168 19.6347L16.223 19.1518C16.223 19.1518 20.4356 16.8607 20.8516 16.6201C21.2675 16.3794 21.7041 16.1113 21.8983 15.8965C22.242 15.5183 21.9945 15.2811 21.9945 15.2811C21.9945 15.2811 21.723 15.7211 21.075 15.6438C20.7037 15.5991 20.2208 15.2983 20.14 15.1574C20.0592 15.0165 15.3842 18.5777 15.3842 18.5777L15.3516 19.1501L16.168 19.6347Z" fill="#424242"/>
<path d="M21.9945 15.2837C21.5442 15.9127 20.7811 15.6377 20.7811 15.6377C20.7811 15.6377 18.3903 16.7841 18.3009 16.6105C18.2116 16.437 20.2758 15.3748 20.2758 15.3748C20.2758 15.3748 20.1606 14.952 20.1726 14.7715C20.1726 14.7715 16.4395 17.1468 15.0387 17.946C14.3048 18.3654 14.1484 18.7607 14.1501 19.3176C14.1501 19.5616 14.1536 20.354 14.157 20.8266C14.157 20.9143 14.1192 20.9968 14.0522 21.0518C13.9507 21.135 13.8689 21.2396 13.8127 21.3582C13.7565 21.4768 13.7274 21.6064 13.7273 21.7376C13.7273 22.0005 13.8425 22.236 14.0247 22.3993C14.1226 22.487 14.102 22.676 14.1106 22.798C14.1278 23.0318 14.1106 23.1384 14.0144 23.3549C13.9198 23.5663 13.8322 23.7829 13.772 24.0063C13.7256 24.1782 13.6947 24.3552 13.6637 24.5305C13.4592 25.7045 13.3664 26.9591 12.825 28.0385C12.8148 28.0587 12.8087 28.0807 12.8071 28.1032C12.8055 28.1258 12.8083 28.1484 12.8155 28.1698C12.8227 28.1913 12.8341 28.2111 12.849 28.228C12.8639 28.245 12.882 28.2589 12.9023 28.2688C12.9432 28.2894 12.9905 28.293 13.0339 28.2789C13.0774 28.2647 13.1135 28.2339 13.1344 28.1932C13.4162 27.6312 13.5623 27.0159 13.6826 26.4057C13.6758 26.9574 13.6723 27.5143 13.6534 28.1159C13.65 28.2327 13.6414 28.4682 13.748 28.5198C14.1484 28.714 14.1484 28.1159 14.1484 28.1159C14.1484 28.1159 14.1536 28.6538 14.6984 28.6538C15.2433 28.6538 15.2828 28.1159 15.2828 28.1159C15.2828 28.1159 15.3223 28.6091 15.6025 28.5851C15.7159 28.5748 15.8655 28.506 15.8122 27.9165C15.7589 27.3287 15.6266 25.2215 15.5698 24.5546C15.4908 23.6316 15.1883 23.0834 15.1264 22.7568C15.1041 22.633 15.1023 22.5041 15.2003 22.4234C15.3 22.3417 15.3807 22.2392 15.4369 22.1232C15.493 22.0071 15.5231 21.8802 15.5253 21.7513C15.5274 21.6225 15.5014 21.4947 15.4492 21.3768C15.3969 21.259 15.3196 21.1539 15.2226 21.069C15.1882 21.0389 15.1612 21.0011 15.1439 20.9588C15.1266 20.9164 15.1194 20.8706 15.123 20.8249C15.1556 20.3798 15.1917 19.7335 15.2209 19.584C15.3481 18.912 15.6798 18.7916 16.0201 18.5923C16.3605 18.3912 21.2898 16.1534 21.5769 15.9626C22.108 15.6068 21.9945 15.2837 21.9945 15.2837Z" fill="#E2A610"/>
<path d="M21.9941 15.2837C21.5696 15.8835 20.6879 15.6154 20.6879 15.6154C20.6879 15.6154 18.4346 16.614 18.5841 16.4335C18.732 16.253 20.2754 15.3748 20.2754 15.3748C20.2754 15.3748 20.1602 14.952 20.1723 14.7715C20.1723 14.7715 16.3738 16.9663 14.9009 18.0216C14.521 18.2949 14.0501 18.7418 14.4334 19.187C14.6104 19.3915 14.9524 19.4345 15.1707 19.2729C15.3031 19.1766 15.4062 19.0357 15.5231 18.924C15.6674 18.783 15.8427 18.6937 16.0146 18.5923C16.3549 18.3912 21.2843 16.1534 21.5713 15.9626C22.1076 15.6068 21.9941 15.2837 21.9941 15.2837Z" fill="#FFCA28"/>
<path d="M14.5628 23.3824C14.3359 23.3824 14.1829 23.3635 14.0437 23.3308C14.0189 23.3251 13.9969 23.3107 13.9818 23.2902C13.9666 23.2697 13.9594 23.2445 13.9612 23.2191L14.0059 22.5625C14.0111 22.4955 14.0747 22.4491 14.14 22.468C14.2947 22.5127 14.604 22.5574 15.1094 22.4508C15.1712 22.4371 15.2331 22.48 15.24 22.5436L15.3087 23.1967C15.3139 23.25 15.2795 23.2999 15.2279 23.3119C14.965 23.3721 14.7742 23.3824 14.5628 23.3824Z" fill="#9E740B"/>
<path d="M27.0996 23.3066C27.0996 23.3066 27.4039 21.7185 27.2818 20.029C27.2612 19.7436 27.0859 19.4979 26.9501 20.4965C26.8728 21.0688 26.7043 22.7824 26.4173 23.8532C26.8556 23.5369 27.0996 23.3066 27.0996 23.3066ZM21.371 13.9171C21.4965 13.9566 21.6117 14.0529 21.6443 14.1818C21.6873 14.3536 21.579 14.5255 21.4621 14.6596C21.2335 14.9225 20.919 15.1529 20.5701 15.1408C20.4549 15.1374 20.3312 15.0996 20.2607 15.0085C20.2109 14.9449 20.1937 14.8624 20.1885 14.7816C20.1576 14.1921 20.8245 13.7452 21.371 13.9171Z" fill="#616161"/>
</g>
<defs>
<clipPath id="clip0_3663_2149">
<rect width="22" height="22" fill="white" transform="translate(10.0742 7.59375)"/>
</clipPath>
</defs>
</svg>
