<svg width="100" height="100" viewBox="0 0 100 100" fill="none" xmlns="http://www.w3.org/2000/svg">
<circle opacity="0.3" cx="50" cy="50" r="48.5" fill="#828181" stroke="#8C8888" stroke-width="3"/>
<path fill-rule="evenodd" clip-rule="evenodd" d="M41.3333 39.2917C41.3333 37.1257 42.1937 35.0485 43.7253 33.517C45.2568 31.9854 47.3341 31.125 49.5 31.125C51.6659 31.125 53.7432 31.9854 55.2747 33.517C56.8063 35.0485 57.6667 37.1257 57.6667 39.2917C57.6667 41.4576 56.8063 43.5348 55.2747 45.0664C53.7432 46.5979 51.6659 47.4583 49.5 47.4583C47.3341 47.4583 45.2568 46.5979 43.7253 45.0664C42.1937 43.5348 41.3333 41.4576 41.3333 39.2917ZM41.3333 51.5417C38.6259 51.5417 36.0294 52.6172 34.115 54.5316C32.2005 56.4461 31.125 59.0426 31.125 61.75C31.125 63.3745 31.7703 64.9324 32.919 66.081C34.0676 67.2297 35.6255 67.875 37.25 67.875H61.75C63.3745 67.875 64.9324 67.2297 66.081 66.081C67.2297 64.9324 67.875 63.3745 67.875 61.75C67.875 59.0426 66.7995 56.4461 64.885 54.5316C62.9706 52.6172 60.3741 51.5417 57.6667 51.5417H41.3333Z" fill="#313030"/>
</svg>
