<svg width="39" height="35" viewBox="0 0 39 35" fill="none" xmlns="http://www.w3.org/2000/svg">
<rect width="38.8125" height="34.5" rx="4.3125" fill="#FEF5E7"/>
<g clip-path="url(#clip0_5341_832)">
<path d="M9.83398 15.7783H28.1673V26.7783H9.83398V15.7783Z" fill="#66757F"/>
<path d="M9.22222 26.7783H28.7778C29.1019 26.7783 29.4128 26.9071 29.642 27.1363C29.8712 27.3655 30 27.6764 30 28.0005H8C8 27.6764 8.12877 27.3655 8.35798 27.1363C8.58719 26.9071 8.89807 26.7783 9.22222 26.7783Z" fill="#CCD6DD"/>
<path d="M18.9993 20.0557C18.5131 20.0557 18.0468 20.2488 17.703 20.5926C17.3592 20.9365 17.166 21.4028 17.166 21.889V25.5557H20.8327V21.889C20.8327 21.4028 20.6395 20.9365 20.2957 20.5926C19.9519 20.2488 19.4856 20.0557 18.9993 20.0557Z" fill="#292F33"/>
<path d="M9.83398 18.833H12.2784V25.5552H9.83398V18.833ZM13.5007 18.833H15.9451V25.5552H13.5007V18.833ZM25.7229 18.833H28.1673V25.5552H25.7229V18.833ZM22.0562 18.833H24.5007V25.5552H22.0562V18.833Z" fill="#CCD6DD"/>
<path d="M9.22266 25.5557H28.7782V26.7779H9.22266V25.5557Z" fill="#AAB8C2"/>
<path d="M30 12.7222L19 6L8 12.7222H30Z" fill="#66757F"/>
<path d="M19.0004 7.4668L9.22266 13.3335V15.7779H28.7782V13.3335L19.0004 7.4668Z" fill="#CCD6DD"/>
<path d="M9.83398 17.6113H12.2784V18.8336H9.83398V17.6113ZM13.5007 17.6113H15.9451V18.8336H13.5007V17.6113ZM22.0562 17.6113H24.5007V18.8336H22.0562V17.6113ZM25.7229 17.6113H28.1673V18.8336H25.7229V17.6113Z" fill="#8899A6"/>
<path d="M8.61133 13.333H29.3891V16.3886H8.61133V13.333Z" fill="#CCD6DD"/>
<path d="M30 13.3336C30 13.4956 29.9356 13.6511 29.821 13.7657C29.7064 13.8803 29.551 13.9447 29.3889 13.9447H8.61111C8.44903 13.9447 8.2936 13.8803 8.17899 13.7657C8.06438 13.6511 8 13.4956 8 13.3336V12.7224C8 12.5604 8.06438 12.4049 8.17899 12.2903C8.2936 12.1757 8.44903 12.1113 8.61111 12.1113H29.3889C29.551 12.1113 29.7064 12.1757 29.821 12.2903C29.9356 12.4049 30 12.5604 30 12.7224V13.3336ZM30 17.0002C30 17.1623 29.9356 17.3177 29.821 17.4323C29.7064 17.5469 29.551 17.6113 29.3889 17.6113H8.61111C8.44903 17.6113 8.2936 17.5469 8.17899 17.4323C8.06438 17.3177 8 17.1623 8 17.0002V16.3891C8 16.227 8.06438 16.0716 8.17899 15.957C8.2936 15.8424 8.44903 15.778 8.61111 15.778H29.3889C29.551 15.778 29.7064 15.8424 29.821 15.957C29.9356 16.0716 30 16.227 30 16.3891V17.0002Z" fill="#AAB8C2"/>
<path d="M15.9434 25.5557H22.0545V26.7779H15.9434V25.5557Z" fill="#E1E8ED"/>
<path d="M14.7227 26.7783H23.2782V28.0005H14.7227V26.7783Z" fill="#F5F8FA"/>
</g>
<defs>
<clipPath id="clip0_5341_832">
<rect width="22" height="22" fill="white" transform="translate(8 6)"/>
</clipPath>
</defs>
</svg>
