<svg width="44" height="37" viewBox="0 0 44 37" fill="none" xmlns="http://www.w3.org/2000/svg">
<path d="M34.5 0C36.8802 0 38.8093 1.92942 38.8096 4.30957V22.3633C38.082 22.128 37.306 22 36.5 22C32.3579 22 29 25.3579 29 29.5C29 31.4212 29.7232 33.173 30.9111 34.5H4.30957C1.92956 34.4998 0.000232179 32.5704 0 30.1904V4.30957C0.000231901 1.92956 1.92956 0.00023216 4.30957 0H34.5Z" fill="#CEFEE1"/>
<path fill-rule="evenodd" clip-rule="evenodd" d="M17.1144 9.47852H20.8837C22.5685 9.47852 23.9032 9.47852 24.9473 9.61877C26.0216 9.7636 26.8915 10.0679 27.5781 10.7536C28.2638 11.4402 28.5681 12.3101 28.7129 13.3844C28.7954 14.0013 28.8294 14.7191 28.8431 15.5505C28.8545 15.6202 28.8557 15.6913 28.8468 15.7613C28.8523 16.2796 28.8544 16.8418 28.8532 17.448V17.5507C28.8532 19.2355 28.8532 20.5702 28.7129 21.6143C28.5681 22.6886 28.2638 23.5585 27.5781 24.2451C26.8915 24.9308 26.0216 25.2351 24.9473 25.3799C23.9023 25.5202 22.5685 25.5202 20.8837 25.5202H17.1144C15.4295 25.5202 14.0949 25.5202 13.0508 25.3799C11.9764 25.2351 11.1065 24.9308 10.4199 24.2451C9.73428 23.5585 9.42995 22.6886 9.28511 21.6143C9.14486 20.5693 9.14486 19.2355 9.14486 17.5507V17.448C9.14364 16.8418 9.14578 16.2796 9.15128 15.7613C9.14204 15.6913 9.14296 15.6203 9.15403 15.5505C9.1687 14.7191 9.20261 14.0013 9.28511 13.3844C9.42995 12.3101 9.73428 11.4402 10.4199 10.7536C11.1065 10.0679 11.9764 9.7636 13.0508 9.61877C14.0958 9.47852 15.4295 9.47852 17.1144 9.47852ZM10.5217 16.3535C10.5205 16.7092 10.5199 17.0911 10.5199 17.4993C10.5199 19.2474 10.5217 20.4895 10.6482 21.4318C10.7719 22.3531 11.0048 22.8848 11.3925 23.2725C11.7803 23.6603 12.3119 23.8931 13.2341 24.0168C14.1764 24.1433 15.4176 24.1452 17.1657 24.1452H20.8324C22.5804 24.1452 23.8225 24.1433 24.7649 24.0168C25.6861 23.8931 26.2178 23.6603 26.6055 23.2725C26.9933 22.8848 27.2261 22.3531 27.3499 21.4309C27.4764 20.4886 27.4782 19.2474 27.4782 17.4993C27.4782 17.0911 27.4776 16.7092 27.4764 16.3535H10.5217ZM27.4544 14.9785H10.5437C10.562 14.4404 10.5932 13.9757 10.6482 13.5668C10.7719 12.6456 11.0048 12.1139 11.3925 11.7262C11.7803 11.3384 12.3119 11.1056 13.2341 10.9818C14.1764 10.8553 15.4176 10.8535 17.1657 10.8535H20.8324C22.5804 10.8535 23.8225 10.8553 24.7649 10.9818C25.6861 11.1056 26.2178 11.3384 26.6055 11.7262C26.9933 12.1139 27.2261 12.6456 27.3499 13.5678C27.4049 13.9757 27.436 14.4404 27.4544 14.9785ZM12.8115 21.166C12.8115 20.9837 12.884 20.8088 13.0129 20.6799C13.1418 20.5509 13.3167 20.4785 13.499 20.4785H17.1657C17.348 20.4785 17.5229 20.5509 17.6518 20.6799C17.7808 20.8088 17.8532 20.9837 17.8532 21.166C17.8532 21.3484 17.7808 21.5232 17.6518 21.6522C17.5229 21.7811 17.348 21.8535 17.1657 21.8535H13.499C13.3167 21.8535 13.1418 21.7811 13.0129 21.6522C12.884 21.5232 12.8115 21.3484 12.8115 21.166ZM18.7699 21.166C18.7699 20.9837 18.8423 20.8088 18.9712 20.6799C19.1002 20.5509 19.275 20.4785 19.4574 20.4785H20.8324C21.0147 20.4785 21.1896 20.5509 21.3185 20.6799C21.4474 20.8088 21.5199 20.9837 21.5199 21.166C21.5199 21.3484 21.4474 21.5232 21.3185 21.6522C21.1896 21.7811 21.0147 21.8535 20.8324 21.8535H19.4574C19.275 21.8535 19.1002 21.7811 18.9712 21.6522C18.8423 21.5232 18.7699 21.3484 18.7699 21.166Z" fill="#108B41"/>
<circle cx="37" cy="30" r="6.25" fill="#108B41" stroke="white" stroke-width="0.5"/>
<path d="M39.6658 30.3305L37.3325 32.6639C37.2881 32.7064 37.2357 32.7397 37.1785 32.7619C37.0648 32.8085 36.9374 32.8085 36.8238 32.7619C36.7665 32.7397 36.7142 32.7064 36.6698 32.6639L34.3365 30.3305C34.293 30.287 34.2584 30.2354 34.2349 30.1785C34.2113 30.1217 34.1992 30.0607 34.1992 29.9992C34.1992 29.8749 34.2486 29.7557 34.3365 29.6679C34.4243 29.58 34.5435 29.5306 34.6678 29.5306C34.7921 29.5306 34.9113 29.58 34.9991 29.6679L36.5345 31.2079V27.6659C36.5345 27.5421 36.5836 27.4234 36.6711 27.3359C36.7587 27.2484 36.8774 27.1992 37.0011 27.1992C37.1249 27.1992 37.2436 27.2484 37.3311 27.3359C37.4186 27.4234 37.4678 27.5421 37.4678 27.6659V31.2079L39.0031 29.6679C39.0465 29.6241 39.0981 29.5894 39.155 29.5657C39.2119 29.542 39.2729 29.5298 39.3345 29.5298C39.3961 29.5298 39.4571 29.542 39.5139 29.5657C39.5708 29.5894 39.6224 29.6241 39.6658 29.6679C39.7095 29.7113 39.7443 29.7629 39.7679 29.8197C39.7916 29.8766 39.8038 29.9376 39.8038 29.9992C39.8038 30.0608 39.7916 30.1218 39.7679 30.1787C39.7443 30.2355 39.7095 30.2872 39.6658 30.3305Z" fill="white"/>
</svg>
