<svg width="44" height="37" viewBox="0 0 44 37" fill="none" xmlns="http://www.w3.org/2000/svg">
<path d="M34.5 0C36.8802 0 38.8093 1.92942 38.8096 4.30957V22.3633C38.082 22.128 37.306 22 36.5 22C32.3579 22 29 25.3579 29 29.5C29 31.4212 29.7232 33.173 30.9111 34.5H4.30957C1.92956 34.4998 0.000232179 32.5704 0 30.1904V4.30957C0.000231901 1.92956 1.92956 0.00023216 4.30957 0H34.5Z" fill="#FFE3E3"/>
<path d="M11.667 13.8327L19.0003 10.166L26.3337 13.8327L19.0003 17.4993L11.667 13.8327Z" stroke="#F11010" stroke-width="1.83333" stroke-linejoin="round"/>
<path d="M11.667 17.4995L19.0003 21.1662L26.3337 17.4995M11.667 21.1662L19.0003 24.8328L26.3337 21.1662" stroke="#F11010" stroke-width="1.83333" stroke-linecap="round" stroke-linejoin="round"/>
<circle cx="37" cy="30" r="6.25" fill="#F11010" stroke="white" stroke-width="0.5"/>
<path d="M39.6668 29.6665L37.3334 27.3332C37.2891 27.2907 37.2367 27.2574 37.1794 27.2352C37.0658 27.1885 36.9384 27.1885 36.8248 27.2352C36.7675 27.2574 36.7152 27.2907 36.6708 27.3332L34.3374 29.6665C34.2939 29.71 34.2594 29.7617 34.2359 29.8186C34.2123 29.8754 34.2002 29.9363 34.2002 29.9979C34.2002 30.1221 34.2496 30.2413 34.3374 30.3292C34.4253 30.4171 34.5445 30.4664 34.6688 30.4664C34.793 30.4664 34.9122 30.4171 35.0001 30.3292L36.5354 28.7892V32.3312C36.5354 32.455 36.5846 32.5737 36.6721 32.6612C36.7596 32.7487 36.8783 32.7979 37.0021 32.7979C37.1259 32.7979 37.2446 32.7487 37.3321 32.6612C37.4196 32.5737 37.4688 32.455 37.4688 32.3312V28.7892L39.0041 30.3292C39.0475 30.3729 39.0991 30.4077 39.156 30.4314C39.2128 30.455 39.2738 30.4672 39.3354 30.4672C39.397 30.4672 39.458 30.455 39.5149 30.4314C39.5718 30.4077 39.6234 30.3729 39.6668 30.3292C39.7105 30.2858 39.7452 30.2342 39.7689 30.1773C39.7926 30.1205 39.8048 30.0595 39.8048 29.9979C39.8048 29.9363 39.7926 29.8753 39.7689 29.8184C39.7452 29.7615 39.7105 29.7099 39.6668 29.6665Z" fill="white"/>
</svg>
