<svg width="44" height="37" viewBox="0 0 44 37" fill="none" xmlns="http://www.w3.org/2000/svg">
<path d="M34.5 0C36.8802 0 38.8093 1.92942 38.8096 4.30957V22.3633C38.082 22.128 37.306 22 36.5 22C32.3579 22 29 25.3579 29 29.5C29 31.4212 29.7232 33.173 30.9111 34.5H4.30957C1.92956 34.4998 0.000232179 32.5704 0 30.1904V4.30957C0.000231901 1.92956 1.92956 0.00023216 4.30957 0H34.5Z" fill="#CEFEE1"/>
<path d="M11.6663 13.8335L11.0182 14.4816L10.3701 13.8335L11.0182 13.1854L11.6663 13.8335ZM16.2496 24.8335C16.0065 24.8335 15.7733 24.7369 15.6014 24.565C15.4295 24.3931 15.333 24.1599 15.333 23.9168C15.333 23.6737 15.4295 23.4405 15.6014 23.2686C15.7733 23.0967 16.0065 23.0001 16.2496 23.0001V24.8335ZM15.6015 19.0649L11.0182 14.4816L12.3144 13.1854L16.8977 17.7687L15.6015 19.0649ZM11.0182 13.1854L15.6015 8.60205L16.8977 9.89822L12.3144 14.4816L11.0182 13.1854ZM11.6663 12.9168H21.2913V14.7501H11.6663V12.9168ZM21.2913 24.8335H16.2496V23.0001H21.2913V24.8335ZM27.2496 18.8751C27.2496 20.4554 26.6219 21.9709 25.5045 23.0883C24.3871 24.2057 22.8715 24.8335 21.2913 24.8335V23.0001C21.833 23.0001 22.3694 22.8934 22.8699 22.6861C23.3703 22.4788 23.8251 22.175 24.2081 21.7919C24.5911 21.4089 24.895 20.9542 25.1023 20.4537C25.3096 19.9532 25.4163 19.4168 25.4163 18.8751H27.2496ZM21.2913 12.9168C22.8715 12.9168 24.3871 13.5446 25.5045 14.662C26.6219 15.7794 27.2496 17.2949 27.2496 18.8751H25.4163C25.4163 18.3334 25.3096 17.797 25.1023 17.2966C24.895 16.7961 24.5911 16.3414 24.2081 15.9583C23.8251 15.5753 23.3703 15.2714 22.8699 15.0641C22.3694 14.8568 21.833 14.7501 21.2913 14.7501V12.9168Z" fill="#108B41"/>
<circle cx="37" cy="30" r="6.25" fill="#108B41" stroke="white" stroke-width="0.5"/>
<path d="M39.6668 30.3315L37.3334 32.6648C37.2891 32.7073 37.2367 32.7406 37.1794 32.7628C37.0658 32.8095 36.9384 32.8095 36.8248 32.7628C36.7675 32.7406 36.7152 32.7073 36.6708 32.6648L34.3374 30.3315C34.2939 30.288 34.2594 30.2363 34.2359 30.1795C34.2123 30.1226 34.2002 30.0617 34.2002 30.0002C34.2002 29.8759 34.2496 29.7567 34.3374 29.6688C34.4253 29.581 34.5445 29.5316 34.6688 29.5316C34.793 29.5316 34.9122 29.581 35.0001 29.6688L36.5354 31.2088V27.6668C36.5354 27.5431 36.5846 27.4244 36.6721 27.3369C36.7596 27.2493 36.8783 27.2002 37.0021 27.2002C37.1259 27.2002 37.2446 27.2493 37.3321 27.3369C37.4196 27.4244 37.4688 27.5431 37.4688 27.6668V31.2088L39.0041 29.6688C39.0475 29.6251 39.0991 29.5904 39.156 29.5667C39.2128 29.543 39.2738 29.5308 39.3354 29.5308C39.397 29.5308 39.458 29.543 39.5149 29.5667C39.5718 29.5904 39.6234 29.6251 39.6668 29.6688C39.7105 29.7122 39.7452 29.7638 39.7689 29.8207C39.7926 29.8776 39.8048 29.9386 39.8048 30.0002C39.8048 30.0618 39.7926 30.1228 39.7689 30.1796C39.7452 30.2365 39.7105 30.2881 39.6668 30.3315Z" fill="white"/>
</svg>
