<svg width="41" height="37" viewBox="0 0 41 37" fill="none" xmlns="http://www.w3.org/2000/svg">
<rect width="40.79" height="36.9956" rx="9.48605" fill="#EBF8FE"/>
<mask id="mask0_3858_2176" style="mask-type:luminance" maskUnits="userSpaceOnUse" x="11" y="11" width="20" height="15">
<path d="M22.8537 11.2207H19.1871C15.7303 11.2207 14.0015 11.2207 12.9281 12.295C12.1544 13.0678 11.9381 14.1806 11.8776 16.0332H30.1632C30.1027 14.1806 29.8864 13.0678 29.1127 12.295C28.0393 11.2207 26.3105 11.2207 22.8537 11.2207ZM19.1871 25.8874H22.8537C26.3105 25.8874 28.0393 25.8874 29.1127 24.813C30.1862 23.7387 30.1871 22.0108 30.1871 18.554C30.1871 18.1495 30.1865 17.7675 30.1852 17.4082H11.8556C11.8537 17.7675 11.8531 18.1495 11.8537 18.554C11.8537 22.0108 11.8537 23.7396 12.9281 24.813C14.0024 25.8865 15.7303 25.8874 19.1871 25.8874Z" fill="white"/>
<path fill-rule="evenodd" clip-rule="evenodd" d="M14.832 22.2207C14.832 22.0384 14.9045 21.8635 15.0334 21.7346C15.1623 21.6056 15.3372 21.5332 15.5195 21.5332H19.1862C19.3685 21.5332 19.5434 21.6056 19.6723 21.7346C19.8013 21.8635 19.8737 22.0384 19.8737 22.2207C19.8737 22.403 19.8013 22.5779 19.6723 22.7068C19.5434 22.8358 19.3685 22.9082 19.1862 22.9082H15.5195C15.3372 22.9082 15.1623 22.8358 15.0334 22.7068C14.9045 22.5779 14.832 22.403 14.832 22.2207ZM20.7904 22.2207C20.7904 22.0384 20.8628 21.8635 20.9917 21.7346C21.1207 21.6056 21.2955 21.5332 21.4779 21.5332H22.8529C23.0352 21.5332 23.2101 21.6056 23.339 21.7346C23.4679 21.8635 23.5404 22.0384 23.5404 22.2207C23.5404 22.403 23.4679 22.5779 23.339 22.7068C23.2101 22.8358 23.0352 22.9082 22.8529 22.9082H21.4779C21.2955 22.9082 21.1207 22.8358 20.9917 22.7068C20.8628 22.5779 20.7904 22.403 20.7904 22.2207Z" fill="black"/>
</mask>
<g mask="url(#mask0_3858_2176)">
<path d="M10.0195 7.55469H32.0195V29.5547H10.0195V7.55469Z" fill="#38BDF8"/>
</g>
</svg>
