<svg width="41" height="37" viewBox="0 0 41 37" fill="none" xmlns="http://www.w3.org/2000/svg">
<rect width="40.79" height="36.9956" rx="9.48605" fill="#FEF5E7"/>
<path d="M21.0195 10.3047V12.138" stroke="#F59E0B" stroke-width="1.83333" stroke-linecap="round" stroke-linejoin="round"/>
<path d="M21.0189 12.1387C17.9847 12.1387 15.5189 14.6045 15.5189 17.6387V23.1387C14.6022 23.1387 13.6855 24.0553 13.6855 24.972H21.0189M21.0189 12.1387C24.053 12.1387 26.5189 14.6045 26.5189 17.6387V23.1387C27.4355 23.1387 28.3522 24.0553 28.3522 24.972H21.0189" fill="#F59E0B"/>
<path d="M21.0189 12.1387C17.9847 12.1387 15.5189 14.6045 15.5189 17.6387V23.1387C14.6022 23.1387 13.6855 24.0553 13.6855 24.972H21.0189H28.3522C28.3522 24.0553 27.4355 23.1387 26.5189 23.1387V17.6387C26.5189 14.6045 24.053 12.1387 21.0189 12.1387Z" stroke="#F59E0B" stroke-width="1.83333" stroke-linecap="round" stroke-linejoin="round"/>
<path d="M19.1855 25.8887C19.1855 26.897 20.0105 27.722 21.0189 27.722C22.0272 27.722 22.8522 26.897 22.8522 25.8887" stroke="#F59E0B" stroke-width="1.83333" stroke-linecap="round" stroke-linejoin="round"/>
</svg>
