<svg width="26" height="29" viewBox="0 0 26 29" fill="none" xmlns="http://www.w3.org/2000/svg">
<path d="M13.4277 2.23795C13.4277 2.0401 13.3491 1.85036 13.2092 1.71046C13.0693 1.57056 12.8795 1.49196 12.6817 1.49196C12.4838 1.49196 12.2941 1.57056 12.1542 1.71046C12.0143 1.85036 11.9357 2.0401 11.9357 2.23795V4.52065C8.57879 4.89364 5.96785 7.72837 5.96785 11.1897V20.0072L3.59563 22.3795H21.7677L19.3955 20.0072V11.1897C19.3955 7.72837 16.7846 4.89364 13.4277 4.52065V2.23795ZM12.6817 0C13.2752 0 13.8445 0.235783 14.2642 0.655479C14.6839 1.07518 14.9196 1.64441 14.9196 2.23795V3.29724C18.3661 4.26702 20.8875 7.45982 20.8875 11.1897V19.3955L25.3634 23.8714H0L4.47589 19.3955V11.1897C4.47589 7.45982 6.99731 4.26702 10.4437 3.29724V2.23795C10.4437 1.64441 10.6795 1.07518 11.0992 0.655479C11.5189 0.235783 12.0882 0 12.6817 0ZM12.6817 28.3473C11.8218 28.3475 10.9883 28.0506 10.3222 27.5068C9.65612 26.9631 9.19835 26.2059 9.02638 25.3634H10.578C10.7315 25.7988 11.0162 26.1758 11.393 26.4425C11.7698 26.7093 12.2201 26.8525 12.6817 26.8525C13.1433 26.8525 13.5936 26.7093 13.9704 26.4425C14.3472 26.1758 14.6319 25.7988 14.7854 25.3634H16.337C16.165 26.2059 15.7073 26.9631 15.0412 27.5068C14.3751 28.0506 13.5415 28.3475 12.6817 28.3473Z" fill="#122354"/>
<circle cx="20.142" cy="12.6811" r="3.72991" fill="#F50206"/>
<path d="M19.6254 11.7723V11.2433H20.6833V14.9512H20.0984V11.7723H19.6254Z" fill="white"/>
</svg>
