<svg width="16" height="16" viewBox="0 0 16 16" fill="none" xmlns="http://www.w3.org/2000/svg">
<path d="M4.41132 14C4.11487 14 3.86132 13.8944 3.65065 13.6833C3.43998 13.4722 3.33443 13.2191 3.33398 12.924V7.07733C3.33398 6.78133 3.43954 6.528 3.65065 6.31733C3.86176 6.10667 4.1151 6.00089 4.41065 6H5.33398V4.66667C5.33398 3.924 5.59287 3.294 6.11065 2.77667C6.62798 2.25889 7.25798 2 8.00065 2C8.74332 2 9.37354 2.25889 9.89132 2.77667C10.4091 3.29444 10.6678 3.92444 10.6673 4.66667V6H11.5906C11.8867 6 12.14 6.10556 12.3506 6.31667C12.5613 6.52778 12.6669 6.78111 12.6673 7.07667V12.9233C12.6673 13.2193 12.5618 13.4727 12.3506 13.6833C12.1395 13.894 11.8862 13.9996 11.5906 14H4.41132ZM8.71132 10.7107C8.90421 10.5182 9.00065 10.2813 9.00065 10C9.00065 9.71867 8.90421 9.48178 8.71132 9.28933C8.51843 9.09689 8.28154 9.00044 8.00065 9C7.71976 8.99956 7.48287 9.096 7.28998 9.28933C7.0971 9.48178 7.00065 9.71867 7.00065 10C7.00065 10.2813 7.0971 10.5182 7.28998 10.7107C7.48243 10.9036 7.71932 11 8.00065 11C8.28198 11 8.51887 10.9036 8.71132 10.7107ZM6.00065 6H10.0006V4.66667C10.0006 4.11111 9.80621 3.63889 9.41732 3.25C9.02843 2.86111 8.55621 2.66667 8.00065 2.66667C7.4451 2.66667 6.97287 2.86111 6.58398 3.25C6.1951 3.63889 6.00065 4.11111 6.00065 4.66667V6Z" fill="#F59E0B"/>
</svg>
