<svg width="14" height="14" viewBox="0 0 14 14" fill="none" xmlns="http://www.w3.org/2000/svg">
<path d="M8.89 1.16602H6.6185C5.5895 1.16602 4.774 1.16602 4.13642 1.25235C3.47958 1.34102 2.94817 1.52768 2.52933 1.94827C2.10992 2.36885 1.92383 2.9026 1.83575 3.56177C1.75 4.20227 1.75 5.02068 1.75 6.05377V9.45926C1.75 10.3389 2.28667 11.0926 3.04908 11.4088C3.01 10.8779 3.01 10.1342 3.01 9.51468V6.59218C3.01 5.84493 3.01 5.20035 3.07883 4.68468C3.15292 4.13168 3.31975 3.60202 3.74792 3.1721C4.17608 2.74218 4.704 2.57477 5.25467 2.5001C5.768 2.43127 6.40967 2.43127 7.15458 2.43127H8.94542C9.68975 2.43127 10.3302 2.43127 10.8442 2.5001C10.6902 2.1071 10.4214 1.76961 10.0729 1.53164C9.72427 1.29367 9.31207 1.16625 8.89 1.16602Z" fill="#108B41"/>
<path d="M3.84961 6.64881C3.84961 5.05864 3.84961 4.26356 4.34194 3.76947C4.83369 3.27539 5.62528 3.27539 7.20961 3.27539H8.88961C10.4734 3.27539 11.2655 3.27539 11.7579 3.76947C12.2502 4.26356 12.2496 5.05864 12.2496 6.64881V9.46047C12.2496 11.0506 12.2496 11.8457 11.7579 12.3398C11.2655 12.8339 10.4734 12.8339 8.88961 12.8339H7.20961C5.62586 12.8339 4.83369 12.8339 4.34194 12.3398C3.84961 11.8457 3.84961 11.0506 3.84961 9.46047V6.64881Z" fill="#108B41"/>
</svg>
