<svg width="41" height="37" viewBox="0 0 41 37" fill="none" xmlns="http://www.w3.org/2000/svg">
<rect width="40.79" height="36.9956" rx="9.48605" fill="#E0E4F1"/>
<g clip-path="url(#clip0_3858_2192)">
<path d="M12.0143 8.21941V7.55469C11.838 7.55469 11.669 7.62472 11.5443 7.74938C11.4196 7.87404 11.3496 8.04312 11.3496 8.21941H12.0143ZM27.9678 8.21941H28.6325C28.6325 8.04312 28.5625 7.87404 28.4378 7.74938C28.3131 7.62472 28.1441 7.55469 27.9678 7.55469V8.21941ZM27.9678 26.8317L27.67 27.426C27.7713 27.4768 27.8839 27.5008 27.9972 27.4958C28.1104 27.4908 28.2205 27.4569 28.317 27.3973C28.4134 27.3378 28.493 27.2546 28.5483 27.1556C28.6035 27.0566 28.6325 26.9451 28.6325 26.8317H27.9678ZM25.3089 25.5023L25.6067 24.908C25.5142 24.8617 25.4122 24.8376 25.3089 24.8376C25.2055 24.8376 25.1035 24.8617 25.0111 24.908L25.3089 25.5023ZM22.65 26.8317L22.3522 27.426C22.4446 27.4723 22.5466 27.4964 22.65 27.4964C22.7533 27.4964 22.8553 27.4723 22.9477 27.426L22.65 26.8317ZM19.991 25.5023L20.2888 24.908C20.1964 24.8617 20.0944 24.8376 19.991 24.8376C19.8877 24.8376 19.7857 24.8617 19.6932 24.908L19.991 25.5023ZM17.3321 26.8317L17.0343 27.426C17.1268 27.4723 17.2288 27.4964 17.3321 27.4964C17.4355 27.4964 17.5375 27.4723 17.6299 27.426L17.3321 26.8317ZM12.0143 26.8317H11.3496C11.3496 26.9451 11.3786 27.0566 11.4338 27.1556C11.4891 27.2546 11.5687 27.3378 11.6651 27.3973C11.7616 27.4569 11.8717 27.4908 11.9849 27.4958C12.0981 27.5008 12.2108 27.4768 12.3121 27.426L12.0143 26.8317ZM14.6732 25.5023L14.971 24.908C14.8786 24.8617 14.7766 24.8376 14.6732 24.8376C14.5698 24.8376 14.4679 24.8617 14.3754 24.908L14.6732 25.5023ZM12.0143 8.88414H27.9678V7.55469H12.0143V8.88414ZM27.303 8.21941V26.8317H28.6325V8.21941H27.303ZM28.2656 26.2375L25.6067 24.908L25.0111 26.0966L27.67 27.426L28.2656 26.2375ZM25.0111 24.908L22.3522 26.2375L22.9477 27.426L25.6067 26.0966L25.0111 24.908ZM22.9477 26.2375L20.2888 24.908L19.6932 26.0966L22.3522 27.426L22.9477 26.2375ZM19.6932 24.908L17.0343 26.2375L17.6299 27.426L20.2888 26.0966L19.6932 24.908ZM12.6791 26.8317V8.21941H11.3496V26.8317H12.6791ZM17.6299 26.2375L14.971 24.908L14.3754 26.0966L17.0343 27.426L17.6299 26.2375ZM14.3754 24.908L11.7165 26.2375L12.3121 27.426L14.971 26.0966L14.3754 24.908ZM15.338 14.2019H17.9969V12.8725H15.338V14.2019ZM20.6558 14.2019H24.6441V12.8725H20.6558V14.2019ZM15.338 18.1903H17.9969V16.8609H15.338V18.1903ZM20.6558 18.1903H24.6441V16.8609H20.6558V18.1903ZM20.6558 22.1787H24.6441V20.8492H20.6558V22.1787Z" fill="#445B9E"/>
</g>
<defs>
<clipPath id="clip0_3858_2192">
<rect width="19.9418" height="19.9418" fill="white" transform="translate(10.0195 7.55469)"/>
</clipPath>
</defs>
</svg>
