<svg width="41" height="37" viewBox="0 0 41 37" fill="none" xmlns="http://www.w3.org/2000/svg">
<rect width="40.7949" height="37" rx="9.48718" fill="#E0E4F1"/>
<path d="M20.9666 11.2031C21.9342 11.2031 22.8621 11.5875 23.5463 12.2717C24.2305 12.9559 24.6149 13.8839 24.6149 14.8514C24.6149 15.819 24.2305 16.747 23.5463 17.4312C22.8621 18.1154 21.9342 18.4998 20.9666 18.4998C19.999 18.4998 19.071 18.1154 18.3868 17.4312C17.7026 16.747 17.3182 15.819 17.3182 14.8514C17.3182 13.8839 17.7026 12.9559 18.3868 12.2717C19.071 11.5875 19.999 11.2031 20.9666 11.2031ZM20.9666 20.3239C24.998 20.3239 28.2632 21.9566 28.2632 23.9723V25.7964H13.6699V23.9723C13.6699 21.9566 16.9352 20.3239 20.9666 20.3239Z" fill="#445B9E"/>
</svg>
