<svg width="41" height="37" viewBox="0 0 41 37" fill="none" xmlns="http://www.w3.org/2000/svg">
<rect width="40.79" height="36.9956" rx="9.48605" fill="#FEF5E7"/>
<path d="M19.9426 27.722C19.5301 27.722 19.175 27.5845 18.8774 27.3095C18.5798 27.0345 18.4001 26.6984 18.3384 26.3012L18.1321 24.7887C17.9335 24.7123 17.7465 24.6206 17.5711 24.5137C17.3957 24.4067 17.2237 24.2921 17.0551 24.1699L15.6342 24.7658C15.2523 24.9338 14.8703 24.9491 14.4884 24.8116C14.1064 24.6741 13.8085 24.4296 13.5946 24.0783L12.5176 22.1991C12.3037 21.8477 12.2426 21.4734 12.3342 21.0762C12.4259 20.679 12.6321 20.3505 12.953 20.0908L14.1676 19.1741C14.1523 19.0671 14.1446 18.9639 14.1446 18.8643V18.2455C14.1446 18.1465 14.1523 18.0435 14.1676 17.9366L12.953 17.0199C12.6321 16.7602 12.4259 16.4317 12.3342 16.0345C12.2426 15.6373 12.3037 15.263 12.5176 14.9116L13.5946 13.0324C13.8085 12.681 14.1064 12.4366 14.4884 12.2991C14.8703 12.1616 15.2523 12.1769 15.6342 12.3449L17.0551 12.9408C17.2231 12.8185 17.3988 12.7039 17.5821 12.597C17.7655 12.4901 17.9488 12.3984 18.1321 12.322L18.3384 10.8095C18.3995 10.4123 18.5792 10.0762 18.8774 9.80117C19.1756 9.52617 19.5307 9.38867 19.9426 9.38867H22.0967C22.5092 9.38867 22.8646 9.52617 23.1628 9.80117C23.461 10.0762 23.6404 10.4123 23.7009 10.8095L23.9071 12.322C24.1057 12.3984 24.2931 12.4901 24.4691 12.597C24.6451 12.7039 24.8168 12.8185 24.9842 12.9408L26.4051 12.3449C26.787 12.1769 27.1689 12.1616 27.5509 12.2991C27.9328 12.4366 28.2307 12.681 28.4446 13.0324L29.5217 14.9116C29.7356 15.263 29.7967 15.6373 29.7051 16.0345C29.6134 16.4317 29.4071 16.7602 29.0863 17.0199L27.8717 17.9366C27.887 18.0435 27.8946 18.1468 27.8946 18.2464V18.8643C27.8946 18.9639 27.8794 19.0671 27.8488 19.1741L29.0634 20.0908C29.3842 20.3505 29.5905 20.679 29.6821 21.0762C29.7738 21.4734 29.7127 21.8477 29.4988 22.1991L28.3988 24.0783C28.1849 24.4296 27.887 24.6741 27.5051 24.8116C27.1231 24.9491 26.7412 24.9338 26.3592 24.7658L24.9842 24.1699C24.8162 24.2921 24.6405 24.4067 24.4571 24.5137C24.2738 24.6206 24.0905 24.7123 23.9071 24.7887L23.7009 26.3012C23.6398 26.6984 23.4604 27.0345 23.1628 27.3095C22.8652 27.5845 22.5098 27.722 22.0967 27.722H19.9426ZM21.0655 21.7637C21.9516 21.7637 22.7078 21.4505 23.3342 20.8241C23.9606 20.1977 24.2738 19.4415 24.2738 18.5553C24.2738 17.6692 23.9606 16.913 23.3342 16.2866C22.7078 15.6602 21.9516 15.347 21.0655 15.347C20.1641 15.347 19.4039 15.6602 18.7848 16.2866C18.1657 16.913 17.8565 17.6692 17.8571 18.5553C17.8577 19.4415 18.1673 20.1977 18.7857 20.8241C19.4042 21.4505 20.1641 21.7637 21.0655 21.7637Z" fill="#F59E0B"/>
</svg>
