<svg width="24" height="24" viewBox="0 0 24 24" fill="none" xmlns="http://www.w3.org/2000/svg">
<path d="M1.1875 12.4446V23.2671H22.9487V12.4034C22.9487 12.4034 18.595 9.39961 18.3944 9.37148C18.1937 9.34336 12.3456 3.99023 12.3456 3.99023L5.89937 9.18961L1.1875 12.4446Z" fill="#F8C778"/>
<path d="M1.1875 12.433H6.325L6.31938 23.2555H7.1725L7.17812 10.0799L12.2181 5.64363L17.3031 10.2936L17.29 23.2555H18.0887L18.1019 12.3711L22.9487 12.4049V11.758L18.5275 9.38801L12.6137 4.19238L6.085 9.28113L1.19125 11.8143L1.1875 12.433Z" fill="#F5B03F"/>
<path d="M2.4561 7.98207C2.42235 8.03644 1.11547 11.6402 1.0911 11.7152C1.06672 11.7902 1.1286 11.8783 1.2786 11.8914C1.4286 11.9046 6.60172 11.8914 6.60172 11.8914L6.58672 9.68269C6.58672 9.68269 12.1405 4.68394 12.2023 4.68394C12.2642 4.68394 17.8611 9.81207 17.8742 9.88894C17.8874 9.96394 17.8986 11.8052 17.8986 11.8052C17.8986 11.8052 22.8205 11.8427 22.9217 11.8558C23.023 11.8689 23.0473 11.7302 22.9592 11.4677C22.8711 11.2052 21.8436 8.03644 21.7686 7.98582C21.6936 7.93519 17.6361 7.93519 17.6361 7.93519C17.6361 7.93519 12.553 3.25519 12.4648 3.18019C12.3767 3.10519 12.1142 2.99082 11.8817 3.22332C11.6773 3.42769 6.60735 7.97269 6.60735 7.97269C6.60735 7.97269 2.4936 7.91832 2.4561 7.98207Z" fill="#A62714"/>
<path d="M8.23234 15.1107L8.23047 23.2632H16.173V15.1107C16.173 15.1107 8.23234 15.0901 8.23234 15.1107Z" fill="#CF6150"/>
<path d="M0.682384 23.2964C0.751759 23.4014 1.56176 23.3527 3.71988 23.3639C5.87801 23.3752 6.50613 23.3714 6.61863 23.3489C6.72926 23.3264 6.81926 22.8408 6.74613 22.4189C6.66551 21.9558 6.38801 21.5189 5.93801 21.3783C5.33613 21.1908 4.96488 21.3633 4.67613 21.262C4.38738 21.1627 3.54176 20.7389 2.68488 20.7952C1.94988 20.842 1.42676 21.0577 0.971134 21.7289C0.481759 22.4508 0.637384 23.2289 0.682384 23.2964ZM23.6418 23.2514C23.7524 23.1745 23.743 21.0445 22.2618 20.8814C21.1499 20.7595 20.8593 21.2377 20.6718 21.2377C20.4824 21.2377 19.7624 20.887 18.7686 21.2714C17.533 21.7495 17.5555 23.1408 17.6005 23.2739C17.6455 23.407 18.9243 23.3733 20.6811 23.3845C22.438 23.3958 23.4974 23.3527 23.6418 23.2514Z" fill="#7DB240"/>
<path d="M2.16867 13.0557H5.67305V15.8775H2.1218C2.1218 15.8775 2.1443 13.0782 2.16867 13.0557ZM2.1218 17.1957H5.61117V19.9257H2.0918C2.0918 19.9275 2.1068 17.1807 2.1218 17.1957Z" fill="#3E737C"/>
<path d="M2.70062 13.5713H5.08188V15.4369H2.67062C2.67062 15.4369 2.65375 13.5863 2.70062 13.5713ZM2.59375 17.6513H5.11188V19.4569H2.59375V17.6513Z" fill="#A7D0D7"/>
<path d="M18.6888 13.2222H22.1782V16.0291H18.6738C18.6738 16.0291 18.6888 13.1772 18.6888 13.2222Z" fill="#3E737C"/>
<path d="M19.1738 13.708H21.677V15.5286H19.1738V13.708Z" fill="#A7D0D7"/>
<path d="M18.6428 17.3623H22.1172V20.0173H18.6428C18.6428 20.0173 18.6203 17.3867 18.6428 17.3623Z" fill="#3E737C"/>
<path d="M19.1896 17.8482V19.487H21.5709V17.8332C21.5709 17.8332 19.1671 17.8257 19.1896 17.8482Z" fill="#A7D0D7"/>
<path d="M9.38664 23.2665L9.38477 15.999H15.1035V23.2665H9.38664Z" fill="#3E737C"/>
<path d="M14.4268 17.4826V16.5264H10.0918V17.4826H14.4268ZM10.0918 17.9607H14.4268V20.4489H10.0918V17.9607ZM10.0918 20.9607H14.4268V22.262H10.0918V20.9607Z" fill="#A7D0D7"/>
<path d="M12.0533 17.7465V22.6421H12.5483V17.6959C12.5483 17.6959 12.087 17.7465 12.0533 17.7465ZM12.087 7.51086C10.1427 7.52773 8.83953 8.97711 8.93891 10.8409C9.03453 12.6521 10.4727 13.7884 12.1358 13.7415C13.8833 13.6927 15.1358 12.2902 15.1845 10.6271C15.2333 8.96398 13.8833 7.49586 12.087 7.51086Z" fill="#3E737C"/>
<path d="M12.0366 8.07227C10.4541 8.07227 9.39845 9.27602 9.46595 10.7254C9.5297 12.1241 10.4709 13.1816 12.0872 13.1816C13.5703 13.1816 14.5453 11.9629 14.5753 10.7085C14.6072 9.33977 13.5853 8.07227 12.0366 8.07227Z" fill="white"/>
<path d="M11.5768 10.7736C11.5768 10.7736 10.6581 11.5461 10.6074 11.6361C10.5568 11.7261 10.5587 11.8742 10.6806 11.9736C10.8043 12.073 10.9262 12.0148 11.0012 11.9567C11.0743 11.8986 12.0437 11.1036 12.0437 11.1036C12.0437 11.1036 12.3568 11.098 12.4299 10.7267C12.4881 10.4305 12.2743 10.2917 12.2743 10.2917C12.2743 10.2917 12.2406 8.51797 12.2256 8.38672C12.2124 8.28922 12.1112 8.19734 12.0212 8.20672C11.9312 8.21422 11.8412 8.26484 11.8318 8.41109C11.8224 8.55734 11.8131 10.2561 11.8131 10.2561C11.8131 10.2561 11.6818 10.3048 11.6087 10.4455C11.5356 10.5842 11.5768 10.7736 11.5768 10.7736Z" fill="#2F2F2F"/>
</svg>
