<svg width="12" height="15" viewBox="0 0 12 15" fill="none" xmlns="http://www.w3.org/2000/svg">
<path d="M5.38833 9.42667H6.27917C6.37972 9.42667 6.46806 9.38472 6.54417 9.30083C6.61972 9.21639 6.64361 9.12361 6.61583 9.0225L6.22 6.85083C6.46556 6.76583 6.66833 6.61472 6.82833 6.3975C6.98778 6.17972 7.0675 5.93944 7.0675 5.67667C7.0675 5.33778 6.94639 5.04722 6.70417 4.805C6.46194 4.56278 6.17111 4.44194 5.83167 4.4425C5.49222 4.44306 5.20194 4.56389 4.96083 4.805C4.71972 5.04611 4.59917 5.33667 4.59917 5.67667C4.59917 5.93944 4.67917 6.17972 4.83917 6.3975C4.99861 6.61417 5.20139 6.76528 5.4475 6.85083L5.05167 9.0225C5.02389 9.12361 5.04778 9.21611 5.12333 9.3C5.19889 9.38389 5.28722 9.42611 5.38833 9.42667ZM5.83333 14.7117C5.75778 14.7117 5.67806 14.7047 5.59417 14.6908C5.51028 14.6769 5.4325 14.6561 5.36083 14.6283C3.72028 14.0033 2.41667 12.9433 1.45 11.4483C0.483333 9.95333 0 8.335 0 6.59333V3.02417C0 2.73861 0.0813891 2.48139 0.244167 2.2525C0.406389 2.02361 0.616667 1.85778 0.875 1.755L5.3625 0.0883333C5.52472 0.0294444 5.68167 0 5.83333 0C5.985 0 6.14222 0.0294444 6.305 0.0883333L10.7917 1.755C11.0494 1.85833 11.2597 2.02417 11.4225 2.2525C11.5853 2.48139 11.6667 2.73861 11.6667 3.02417V6.59333C11.6667 8.335 11.1833 9.95333 10.2167 11.4483C9.25 12.9433 7.94667 14.0033 6.30667 14.6283C6.23389 14.6561 6.15583 14.6769 6.0725 14.6908C5.98917 14.7047 5.90944 14.7117 5.83333 14.7117ZM5.83333 13.9267C7.27778 13.4683 8.47222 12.5517 9.41667 11.1767C10.3611 9.80167 10.8333 8.27389 10.8333 6.59333V3.00833C10.8333 2.90167 10.8039 2.80556 10.745 2.72C10.6867 2.63444 10.6039 2.57056 10.4967 2.52833L6.01 0.861667C5.95667 0.839445 5.89778 0.828333 5.83333 0.828333C5.76889 0.828333 5.71 0.839445 5.65667 0.861667L1.17 2.52833C1.06278 2.57056 0.98 2.63444 0.921667 2.72C0.862778 2.80556 0.833333 2.90167 0.833333 3.00833V6.59333C0.833333 8.27389 1.30556 9.80167 2.25 11.1767C3.19444 12.5517 4.38889 13.4683 5.83333 13.9267Z" fill="#757575"/>
</svg>
