<svg width="32" height="32" viewBox="0 0 32 32" fill="none" xmlns="http://www.w3.org/2000/svg">
<path d="M11.6208 6.90853C12.8147 6.33355 14.1102 5.99936 15.4333 5.92506C16.7564 5.85075 18.0812 6.03778 19.3321 6.47546C20.5829 6.91314 21.7352 7.5929 22.7234 8.47593C23.7115 9.35896 24.516 10.428 25.091 11.6219C25.666 12.8159 26.0001 14.1114 26.0744 15.4345C26.1488 16.7576 25.9617 18.0824 25.524 19.3332C25.0864 20.584 24.4066 21.7364 23.5236 22.7245C22.6405 23.7126 21.5715 24.5171 20.3776 25.0921C17.9663 26.2533 15.1926 26.4091 12.6664 25.5253C10.1403 24.6414 8.0688 22.7902 6.90757 20.3789C5.74635 17.9677 5.59055 15.1939 6.47445 12.6678C7.35834 10.1417 9.20953 8.06975 11.6208 6.90853Z" fill="#F2C94C"/>
<path d="M20.2415 20.2432C19.6843 20.8004 19.0228 21.2424 18.2949 21.5439C17.5669 21.8455 16.7866 22.0007 15.9987 22.0007C15.2107 22.0007 14.4304 21.8455 13.7025 21.5439C12.9745 21.2424 12.313 20.8004 11.7559 20.2432" stroke="#333333" stroke-width="1.3" stroke-linecap="round" stroke-linejoin="round"/>
<path d="M13.9791 14.9382C13.7272 14.647 13.418 14.4109 13.0707 14.2446C12.736 14.0849 12.37 14.0017 11.9991 14.001C11.6311 14.001 11.2671 14.0838 10.9275 14.2446C10.5875 14.4054 10.2795 14.641 10.0195 14.9382M21.9791 14.9382C21.7272 14.647 21.418 14.4109 21.0707 14.2446C20.736 14.0849 20.37 14.0017 19.9991 14.001C19.6311 14.001 19.2671 14.0838 18.9275 14.2446C18.5875 14.4054 18.2795 14.641 18.0195 14.9382" stroke="#4F4F4F" stroke-width="1.3" stroke-linecap="round" stroke-linejoin="round"/>
</svg>
