<svg width="41" height="38" viewBox="0 0 41 38" fill="none" xmlns="http://www.w3.org/2000/svg">
<rect width="41" height="37.186" rx="9.53488" fill="#D9FFE8"/>
<g clip-path="url(#clip0_2940_3171)">
<path d="M21.0651 8.29157C14.9601 8.20563 10.4261 13.4341 10.7303 19.0252C11.0895 25.6097 15.7971 28.9183 21.304 28.8805C27.0893 28.8409 31.479 24.74 31.3587 18.5456C31.2401 12.3616 26.6923 8.37235 21.0651 8.29157Z" fill="#C8C8C8"/>
<path d="M16.237 10.2081C11.9642 12.6573 9.25199 19.5993 13.8032 24.8518C14.3601 25.4946 15.2453 25.9432 15.9173 26.2492C20.5064 28.3237 26.0596 25.1337 28.2081 22.7017C29.9131 20.7715 30.5404 19.4911 30.3376 16.8562C30.1812 14.8075 29.3046 12.8292 27.4879 11.3665C23.3801 8.05277 18.9509 8.6509 16.237 10.2081Z" fill="white"/>
<path d="M20.5402 14.4336C20.5247 14.425 18.9348 13.5124 17.7008 13.0552C16.4152 12.5791 15.4664 12.323 15.4561 12.3213L15.6331 11.6578C15.6727 11.6681 16.6214 11.9225 17.9397 12.4124C19.2288 12.8902 20.8169 13.8011 20.8839 13.8406L20.5402 14.4336ZM23.336 12.6399L24.2716 9.30176L24.9336 9.48721L23.9983 12.8254L23.336 12.6399ZM30.2855 16.9653C30.2769 16.9619 29.3625 16.6147 28.3416 16.338C27.5733 16.13 26.5833 15.9186 26.573 15.9169L26.7156 15.2449C26.7569 15.2534 27.7331 15.4614 28.5203 15.6745C29.5773 15.9599 30.4917 16.3088 30.5312 16.3225L30.2855 16.9653ZM24.8766 23.7097C24.8766 23.6994 24.7906 22.6509 24.5844 21.5784C24.3798 20.5197 23.9897 19.5228 23.9862 19.5142L24.6256 19.2616C24.6428 19.3045 25.0433 20.3255 25.2598 21.4495C25.473 22.5616 25.5589 23.6117 25.5623 23.6564L24.8766 23.7097ZM28.2952 24.6653L27.8414 24.148C27.8483 24.1428 28.5083 23.5584 29.323 22.4584C30.0758 21.4409 30.423 20.5506 30.4264 20.5403L31.0675 20.7861C31.052 20.8256 30.6825 21.7744 29.8747 22.8658C29.0136 24.0311 28.3244 24.6395 28.2952 24.6653ZM15.7185 21.1522L19.6963 17.6018L20.1541 18.1146L16.1762 21.6651L15.7185 21.1522ZM12.2919 20.2017C12.2816 20.1347 12.0547 18.5449 12.0547 17.0908C12.0547 15.6402 12.2197 14.2978 12.2283 14.2411L12.9106 14.327C12.9089 14.3408 12.7439 15.6849 12.7439 17.0908C12.7439 18.4933 12.9725 20.0883 12.9742 20.1038L12.2919 20.2017ZM22.3277 27.1283C22.2847 27.1231 21.2363 26.9908 19.423 26.458C18.268 26.1177 16.948 25.4199 16.8912 25.3906L17.2144 24.7839C17.2281 24.7908 18.5292 25.48 19.6172 25.7997C21.3703 26.3153 22.4016 26.4459 22.4119 26.4477L22.3277 27.1283Z" fill="#171717"/>
<path d="M19.2459 13.2176C19.1926 13.3517 19.2631 18.1384 19.3714 18.2811C19.4796 18.4237 24.2921 20.0582 24.507 20.005C24.7218 19.9517 27.2896 15.9109 27.2896 15.7493C27.2896 15.5878 24.1306 11.6914 23.969 11.6553C23.8075 11.6192 19.3181 13.0371 19.2459 13.2176ZM30.2442 13.8054C30.2442 13.8054 29.5361 16.1618 29.5361 16.3423C29.5361 16.5211 29.9675 17.5093 30.1651 18.7296C30.3628 19.95 30.0757 21.7821 30.2012 21.8543C30.3267 21.9265 30.9489 21.8904 30.9489 21.8904C30.9489 21.8904 31.5487 20.005 31.2961 17.5815C31.0434 15.1564 30.2442 13.8054 30.2442 13.8054ZM25.1361 23.1829C24.9917 23.1967 21.2036 26.4503 21.2207 26.5414C21.2379 26.6307 22.704 28.7912 22.704 28.7912C22.704 28.7912 24.5465 28.6451 26.2343 27.7307C27.9221 26.8164 28.5632 26.0034 28.5632 26.0034C28.5632 26.0034 28.797 23.8309 28.7076 23.8137C28.62 23.7931 25.3165 23.1657 25.1361 23.1829ZM12.4946 19.125C12.3967 19.2057 11.8295 20.4536 11.6679 21.1548C11.5064 21.8543 11.417 22.5195 11.417 22.5195C11.417 22.5195 11.8484 23.7673 12.4946 24.692C13.2956 25.8367 14.3371 26.6445 14.3371 26.6445C14.3371 26.6445 17.7368 25.6081 17.7557 25.4637C17.7746 25.3193 17.3604 24.0629 17.0734 23.0214C16.7864 21.9798 16.7331 20.8128 16.6248 20.7406C16.5165 20.6684 15.4217 20.3281 14.5606 19.9861C13.6995 19.644 12.6029 19.0356 12.4946 19.125ZM11.429 14.792C11.429 14.792 12.3692 15.605 12.5136 15.605C12.6579 15.605 13.5689 14.3984 14.4884 13.6662C15.7276 12.6779 16.3378 12.3548 16.3567 12.2293C16.3739 12.1039 16.9136 9.10465 16.9136 9.10465C16.9136 9.10465 14.9198 9.85918 13.4657 11.5281C12.0117 13.197 11.429 14.792 11.429 14.792ZM21.5971 8.30371C21.5971 8.30371 22.7436 8.89324 23.1612 9.18371C23.5789 9.47418 24.1942 10.0895 24.3764 10.1084C24.5568 10.1273 27.0507 10.129 27.0507 10.129C27.0507 10.129 25.9198 9.35559 24.6668 8.91215C23.1595 8.37762 21.5971 8.30371 21.5971 8.30371Z" fill="#474C4F"/>
</g>
<defs>
<clipPath id="clip0_2940_3171">
<rect width="22" height="22" fill="white" transform="translate(10.0732 7.59424)"/>
</clipPath>
</defs>
</svg>
