<svg width="41" height="37" viewBox="0 0 41 37" fill="none" xmlns="http://www.w3.org/2000/svg">
<rect width="40.79" height="36.9956" rx="9.48605" fill="#FEF5E7"/>
<path d="M26.6914 14.6016H24.1133V13.5703H17.668V14.6016H15.0898C14.7252 14.6016 14.3754 14.7464 14.1176 15.0043C13.8597 15.2622 13.7148 15.6119 13.7148 15.9766V23.1094C13.7148 23.474 13.8597 23.8238 14.1176 24.0816C14.3754 24.3395 14.7252 24.4844 15.0898 24.4844H26.6914C27.0561 24.4844 27.4058 24.3395 27.6637 24.0816C27.9215 23.8238 28.0664 23.474 28.0664 23.1094V15.9766C28.0664 15.6119 27.9215 15.2622 27.6637 15.0043C27.4058 14.7464 27.0561 14.6016 26.6914 14.6016ZM20.8903 23.7109C18.5927 23.7109 16.724 21.8409 16.724 19.5433C16.724 17.2457 18.5927 15.3757 20.8903 15.3757C23.1879 15.3757 25.0579 17.2457 25.0579 19.5433C25.0579 21.8409 23.1879 23.7096 20.8903 23.7096V23.7109ZM20.8903 16.75C20.5234 16.75 20.1601 16.8223 19.8212 16.9628C19.4823 17.1032 19.1744 17.309 18.915 17.5685C18.6556 17.8279 18.4498 18.1359 18.3095 18.4749C18.1691 18.8138 18.0969 19.1771 18.097 19.544C18.097 19.9109 18.1693 20.2741 18.3098 20.6131C18.4502 20.952 18.656 21.2599 18.9155 21.5193C19.1749 21.7787 19.4829 21.9844 19.8219 22.1248C20.1608 22.2651 20.5241 22.3374 20.891 22.3373C21.632 22.3372 22.3426 22.0428 22.8665 21.5187C23.3904 20.9947 23.6847 20.284 23.6846 19.543C23.6845 18.802 23.3901 18.0913 22.866 17.5674C22.342 17.0435 21.6313 16.7492 20.8903 16.7493V16.75Z" fill="#F59E0B"/>
</svg>
