<svg width="41" height="38" viewBox="0 0 41 38" fill="none" xmlns="http://www.w3.org/2000/svg">
<rect width="41" height="37.186" rx="9.53488" fill="#FEF5E7"/>
<g clip-path="url(#clip0_2940_3134)">
<path d="M13.5781 20.5809C13.5781 20.5809 13.9868 22.1546 16.5464 21.7521L16.9812 20.6988L16.2446 19.8986L14.2079 19.2266L13.5781 20.5809Z" fill="#34484C"/>
<path d="M21.7326 17.6292C21.7326 18.1865 21.4459 18.3339 20.7227 18.6392L14.5441 21.2482C14.4114 21.2483 14.28 21.2222 14.1574 21.1715C14.0347 21.1207 13.9233 21.0463 13.8295 20.9524C13.7357 20.8585 13.6614 20.7471 13.6107 20.6244C13.56 20.5018 13.534 20.3703 13.5342 20.2376V11.5555C13.5342 10.998 13.8621 10.813 14.5441 10.5466L20.723 7.93652C20.9909 7.93661 21.2477 8.04304 21.4372 8.23241C21.6266 8.42178 21.7331 8.67861 21.7333 8.94646V17.6296" fill="#AD7029"/>
<path d="M14.0938 21.1431C14.0938 21.1431 16.4106 21.8065 16.5461 21.7508C16.6808 21.6924 16.4587 20.7457 16.4587 20.7457L15.6217 19.8441L14.8414 19.8076L14.7042 20.0022L14.0938 21.1431Z" fill="#34484C"/>
<path d="M20.5767 8.54004L13.7217 11.4189L14.0431 13.2645L15.063 13.3666L18.4692 12.8184L20.5864 11.7091L22.1442 9.57438C21.8046 8.96423 21.3038 8.58645 20.5767 8.54004Z" fill="#F4F5F5"/>
<path d="M15.5372 12.0584C15.5372 11.8962 15.5674 11.7666 15.6224 11.6573C14.9205 11.5913 14.2577 11.3888 13.7751 10.9536C13.6142 11.1011 13.5352 11.2836 13.5352 11.5572V20.2397C13.5353 20.5075 13.6418 20.7642 13.8312 20.9536C14.0205 21.143 14.2773 21.2494 14.5451 21.2496L15.542 20.8289C15.5399 20.7986 15.5368 20.7711 15.5368 20.7409L15.5372 12.0584Z" fill="#34484C"/>
<path d="M23.9134 18.4861C23.9134 19.0447 23.6263 19.1908 22.9028 19.4967L16.5458 21.7507C16.2778 21.7507 16.0208 21.6443 15.8313 21.4548C15.6418 21.2654 15.5352 21.0084 15.5352 20.7404V12.058C15.5352 11.5011 15.8634 11.3155 16.5458 11.0474L22.9028 8.79443C23.1705 8.79443 23.4273 8.90067 23.6168 9.08983C23.8062 9.27899 23.9129 9.5356 23.9134 9.80334V18.4861Z" fill="#F79420"/>
<path d="M21.2804 11.4446C21.287 11.4613 21.2903 11.4791 21.2899 11.4971C21.2896 11.515 21.2857 11.5327 21.2784 11.5491C21.2711 11.5656 21.2607 11.5804 21.2476 11.5927C21.2346 11.605 21.2192 11.6146 21.2024 11.6209L17.8213 12.9251C17.7874 12.9382 17.7498 12.9373 17.7166 12.9228C17.6833 12.9082 17.6572 12.8812 17.6439 12.8474C17.6309 12.8136 17.6318 12.7761 17.6464 12.743C17.6609 12.7098 17.6879 12.6837 17.7216 12.6704L21.1041 11.3662C21.1379 11.3535 21.1753 11.3546 21.2083 11.3693C21.2413 11.3839 21.2672 11.411 21.2804 11.4446ZM21.2804 12.0668C21.2869 12.0835 21.2901 12.1013 21.2897 12.1192C21.2893 12.1371 21.2854 12.1548 21.2781 12.1712C21.2709 12.1876 21.2604 12.2024 21.2474 12.2147C21.2344 12.2271 21.2191 12.2367 21.2024 12.2431L17.8213 13.5466C17.8046 13.5532 17.7868 13.5564 17.7689 13.556C17.751 13.5557 17.7334 13.5519 17.717 13.5447C17.7006 13.5376 17.6857 13.5273 17.6733 13.5144C17.6609 13.5015 17.6511 13.4863 17.6446 13.4696C17.638 13.453 17.6348 13.4352 17.6351 13.4173C17.6355 13.3994 17.6393 13.3817 17.6465 13.3653C17.6536 13.3489 17.6639 13.3341 17.6768 13.3217C17.6897 13.3092 17.7049 13.2995 17.7216 13.2929L21.1041 11.9881C21.1379 11.9754 21.1755 11.9766 21.2085 11.9914C21.2415 12.0062 21.2673 12.0334 21.2804 12.0671M20.1309 13.152C20.1584 13.2221 20.1416 13.2953 20.0934 13.3136L17.7841 14.2039C17.736 14.2224 17.6755 14.1798 17.6473 14.1097C17.6208 14.0396 17.6387 13.9663 17.6862 13.9481L19.9955 13.0585C20.0422 13.0406 20.1044 13.0812 20.1309 13.152Z" fill="#905A24"/>
<path d="M11.4961 25.5308C11.4961 25.5308 11.9368 27.2292 14.6978 26.7954L15.1677 25.6583L14.3736 24.7951L12.174 24.0698L11.4961 25.5308Z" fill="#34484C"/>
<path d="M20.2944 22.3536C20.2944 22.9548 19.985 23.113 19.204 23.4433L12.5367 26.2579C12.3934 26.258 12.2516 26.2299 12.1193 26.1751C11.987 26.1203 11.8667 26.04 11.7655 25.9388C11.6642 25.8375 11.5839 25.7173 11.5291 25.5849C11.4743 25.4526 11.4462 25.3108 11.4463 25.1676V15.8007C11.4463 15.1967 11.7997 14.997 12.5367 14.71L19.204 11.895C19.3472 11.8949 19.4889 11.923 19.6212 11.9777C19.7534 12.0324 19.8736 12.1127 19.9749 12.2138C20.0761 12.315 20.1565 12.4351 20.2113 12.5673C20.2661 12.6995 20.2944 12.8412 20.2944 12.9844V22.3536Z" fill="#1EA0CD"/>
<path d="M12.0538 26.1411C12.0538 26.1411 14.5535 26.8585 14.6975 26.7974C14.844 26.7348 14.6047 25.7132 14.6047 25.7132L13.7007 24.739L12.8599 24.7012L12.712 24.9105L12.0527 26.1411" fill="#34484C"/>
<path d="M19.0488 12.541L11.6533 15.6499L11.9995 17.6402L13.0995 17.7502L16.7749 17.1579L19.0594 15.9613L20.7407 13.6579C20.3736 12.9992 19.8332 12.5909 19.0494 12.541" fill="#F4F5F5"/>
<path d="M13.6111 16.3388C13.6111 16.1652 13.6406 16.0246 13.7008 15.9063C12.9445 15.8362 12.2302 15.6176 11.707 15.147C11.5352 15.3065 11.4492 15.5045 11.4492 15.8001V25.1666C11.4491 25.3098 11.4772 25.4515 11.532 25.5838C11.5867 25.7161 11.6669 25.8363 11.7681 25.9376C11.8693 26.0388 11.9895 26.1192 12.1217 26.174C12.254 26.2288 12.3957 26.257 12.5389 26.257L13.6148 25.8032C13.6119 25.7716 13.6104 25.7398 13.6104 25.708V16.3388H13.6111Z" fill="#34484C"/>
<path d="M22.6487 23.2743C22.6487 23.8762 22.34 24.034 21.5583 24.364L14.6984 26.7971C14.4094 26.7968 14.1322 26.6818 13.9278 26.4774C13.7235 26.2729 13.6086 25.9958 13.6084 25.7067V16.3378C13.6084 15.7362 13.9631 15.5362 14.6984 15.2481L21.5583 12.8164C21.7015 12.8163 21.8433 12.8445 21.9757 12.8992C22.108 12.954 22.2282 13.0343 22.3295 13.1356C22.4308 13.2368 22.5111 13.3571 22.5659 13.4894C22.6206 13.6217 22.6488 13.7636 22.6487 13.9068V23.2743Z" fill="#57C6E9"/>
<path d="M19.8079 15.6759C19.8219 15.7124 19.8209 15.753 19.805 15.7888C19.7892 15.8245 19.7598 15.8526 19.7233 15.8667L16.0762 17.2733C16.0397 17.2875 15.9991 17.2867 15.9632 17.2711C15.9273 17.2555 15.899 17.2264 15.8843 17.1901C15.8703 17.1533 15.8714 17.1125 15.8874 17.0765C15.9033 17.0405 15.9329 17.0123 15.9696 16.998L19.6168 15.5921C19.6533 15.5779 19.6938 15.5788 19.7297 15.5945C19.7655 15.6102 19.7936 15.6395 19.8079 15.6759ZM19.8079 16.349C19.8217 16.3854 19.8206 16.4258 19.8047 16.4614C19.7889 16.497 19.7596 16.5249 19.7233 16.5391L16.0762 17.9454C16.0581 17.9525 16.0388 17.956 16.0193 17.9556C15.9999 17.9553 15.9807 17.9511 15.9629 17.9434C15.9451 17.9356 15.929 17.9244 15.9155 17.9104C15.902 17.8964 15.8914 17.8799 15.8843 17.8618C15.8704 17.8252 15.8715 17.7846 15.8875 17.7488C15.9035 17.713 15.933 17.6851 15.9696 17.6711L19.6168 16.2644C19.6533 16.2503 19.694 16.2513 19.7298 16.2671C19.7657 16.283 19.7938 16.3124 19.8079 16.349ZM18.5677 17.5188C18.5965 17.5951 18.5787 17.6728 18.5267 17.692L16.0346 18.6528C15.983 18.6734 15.918 18.6281 15.8881 18.5524C15.8589 18.4754 15.8764 18.3977 15.9283 18.3781L18.4202 17.4174C18.4728 17.3985 18.5384 17.4435 18.5677 17.5188Z" fill="#198BA9"/>
<path d="M17.5879 27.8072C17.5879 27.8072 18.0657 29.6411 21.0484 29.1719L21.5565 27.944L20.6981 27.0121L18.3221 26.228L17.5879 27.8072Z" fill="#34484C"/>
<path d="M27.0927 24.3703C27.0927 25.02 26.7593 25.1915 25.915 25.547L18.7135 28.5881C18.4013 28.5881 18.1019 28.4641 17.8811 28.2434C17.6603 28.0227 17.5362 27.7233 17.5361 27.4111V17.2908C17.5361 16.6404 17.918 16.4238 18.7135 16.1134L25.915 13.0723C26.2273 13.0724 26.5267 13.1964 26.7476 13.4172C26.9684 13.6379 27.0925 13.9374 27.0927 14.2496V24.3703Z" fill="#78111F"/>
<path d="M18.1904 28.4657C18.1904 28.4657 20.8913 29.2395 21.0484 29.1728C21.2055 29.1061 20.9476 28.003 20.9476 28.003L19.9714 26.9505L19.0622 26.9082L18.9023 27.1358L18.1908 28.4661" fill="#34484C"/>
<path d="M25.746 13.7739L17.7549 17.1306L18.1303 19.2825L19.3196 19.4001L23.2872 18.7614L25.7553 17.4675L27.572 14.9805C27.174 14.2689 26.5913 13.8276 25.744 13.7739" fill="#F4F5F5"/>
<path d="M19.8742 17.8751C19.8742 17.6877 19.9075 17.5365 19.9714 17.4076C19.1533 17.332 18.3819 17.0955 17.8182 16.5874C17.6319 16.7596 17.5391 16.9734 17.5391 17.2921V27.4121C17.5391 27.5667 17.5696 27.7199 17.6288 27.8627C17.6881 28.0056 17.7749 28.1354 17.8842 28.2447C17.9936 28.3541 18.1235 28.4408 18.2664 28.4999C18.4093 28.5591 18.5624 28.5895 18.7171 28.5894L19.879 28.0986C19.8761 28.0647 19.8745 28.0308 19.8742 27.9968V17.8751Z" fill="#34484C"/>
<path d="M29.635 25.3695C29.635 26.0192 29.3016 26.1897 28.4584 26.5465L21.0475 29.1734C20.7355 29.1736 20.4361 29.0498 20.2154 28.8294C19.9946 28.6089 19.8704 28.3098 19.8701 27.9978V17.875C19.8701 17.2253 20.252 17.0098 21.0475 16.6994L28.4587 14.0718C28.7707 14.0719 29.0698 14.1958 29.2904 14.4164C29.511 14.637 29.6349 14.9361 29.635 15.2481V25.3695Z" fill="#BE202E"/>
<path d="M26.5676 17.1582C26.5753 17.1778 26.579 17.1987 26.5786 17.2197C26.5781 17.2407 26.5736 17.2614 26.5651 17.2806C26.5566 17.2999 26.5445 17.3172 26.5293 17.3317C26.5141 17.3463 26.4961 17.3576 26.4765 17.3652L22.5351 18.8839C22.5157 18.8915 22.495 18.8953 22.4742 18.8949C22.4533 18.8946 22.4328 18.8901 22.4137 18.8818C22.3946 18.8734 22.3773 18.8614 22.3629 18.8464C22.3484 18.8313 22.3371 18.8136 22.3295 18.7941C22.3219 18.7747 22.3182 18.7539 22.3186 18.733C22.3191 18.7122 22.3236 18.6916 22.3321 18.6724C22.3405 18.6533 22.3526 18.6361 22.3678 18.6217C22.3829 18.6073 22.4008 18.596 22.4203 18.5886L26.3621 17.0682C26.3815 17.0605 26.4022 17.0568 26.4231 17.0572C26.4439 17.0575 26.4645 17.062 26.4836 17.0704C26.5027 17.0788 26.52 17.0909 26.5344 17.1059C26.5488 17.121 26.5601 17.1388 26.5676 17.1582ZM26.5676 17.8846C26.5752 17.904 26.5789 17.9248 26.5784 17.9457C26.5779 17.9665 26.5733 17.9871 26.5648 18.0062C26.5564 18.0252 26.5442 18.0425 26.5291 18.0568C26.5139 18.0712 26.4961 18.0824 26.4765 18.0898L22.5348 19.6095C22.4954 19.6247 22.4517 19.6236 22.4131 19.6065C22.3746 19.5894 22.3444 19.5577 22.3292 19.5184C22.3139 19.4789 22.3149 19.435 22.3319 19.3962C22.3489 19.3575 22.3805 19.327 22.42 19.3115L26.3617 17.7935C26.3812 17.7858 26.4021 17.782 26.4231 17.7824C26.4441 17.7828 26.4648 17.7873 26.4839 17.7958C26.5031 17.8043 26.5205 17.8165 26.5349 17.8318C26.5493 17.847 26.5602 17.865 26.5676 17.8846ZM25.2287 19.1496C25.2604 19.2314 25.2411 19.316 25.1837 19.3369L22.4925 20.3754C22.4358 20.3967 22.365 20.3479 22.3337 20.2657C22.3017 20.1843 22.3213 20.099 22.3784 20.0774L25.0696 19.0403C25.1249 19.0186 25.1957 19.0671 25.2287 19.1496Z" fill="#78111F"/>
</g>
<defs>
<clipPath id="clip0_2940_3134">
<rect width="22" height="22" fill="white" transform="translate(10.0723 7.59277)"/>
</clipPath>
</defs>
</svg>
