<svg width="41" height="37" viewBox="0 0 41 37" fill="none" xmlns="http://www.w3.org/2000/svg">
<rect width="40.7949" height="37" rx="9.48718" fill="#E0E4F1"/>
<g clip-path="url(#clip0_3858_1724)">
<path fill-rule="evenodd" clip-rule="evenodd" d="M13.8005 8.94319H13.7848L13.0022 9.01862C12.458 9.07101 11.9476 9.30611 11.5541 9.68562C11.1606 10.0651 10.9072 10.5667 10.8352 11.1086L10.7881 11.4669L10.7849 11.4889C10.6058 12.823 10.4141 14.2625 10.4141 15.7475C10.4141 17.2309 10.6058 18.6703 10.7849 20.0045L10.7881 20.0265L10.8352 20.3848C10.9072 20.9267 11.1606 21.4283 11.5541 21.8078C11.9476 22.1873 12.458 22.4224 13.0022 22.4748C13.2599 22.4978 13.5203 22.5224 13.7832 22.5486H13.7863C14.4212 22.6115 15.0749 22.6743 15.7349 22.7278C15.9427 22.7444 16.1486 22.6779 16.3072 22.5428C16.4659 22.4077 16.5645 22.215 16.5811 22.0073C16.5978 21.7995 16.5313 21.5936 16.3961 21.4349C16.261 21.2762 16.0684 21.1777 15.8606 21.161L15.7663 21.1548L15.7648 20.853C15.7648 19.423 15.9518 18.0245 16.1309 16.6778L16.1781 16.3179C16.227 15.9526 16.398 15.6145 16.6633 15.3586C16.9286 15.1027 17.2726 14.9441 17.6395 14.9083L18.4252 14.8329C19.9998 14.6805 21.6309 14.5202 23.3029 14.5202C24.0289 14.5202 24.7455 14.5516 25.4542 14.5972L25.4605 14.7009C25.4775 14.9052 25.5737 15.0947 25.7285 15.229C25.8833 15.3634 26.0845 15.4319 26.2891 15.42C26.4937 15.4081 26.6856 15.3167 26.8238 15.1654C26.9619 15.014 27.0355 14.8146 27.0288 14.6098C26.9659 13.5286 26.8245 12.4742 26.6909 11.4795V11.4669L26.6422 11.1086C26.5705 10.5664 26.3172 10.0645 25.9237 9.68466C25.5302 9.30483 25.0196 9.06951 24.4752 9.01705L23.6942 8.94476L23.6785 8.94319C22.1118 8.78919 20.4492 8.62891 18.7395 8.62891C17.0298 8.62891 15.3656 8.78919 13.8005 8.94319Z" fill="#2859C5"/>
<path fill-rule="evenodd" clip-rule="evenodd" d="M23.3024 13.7344C21.5895 13.7344 19.9159 13.8978 18.3414 14.0518L17.5667 14.1257C17.0225 14.178 16.5121 14.4131 16.1186 14.7927C15.7251 15.1722 15.4717 15.6737 15.3997 16.2157L15.3509 16.5802C15.1718 17.9191 14.9785 19.3664 14.9785 20.8545C14.9785 22.3395 15.1718 23.7884 15.3509 25.1272L15.3997 25.4918C15.4717 26.0337 15.7251 26.5353 16.1186 26.9148C16.5121 27.2943 17.0225 27.5294 17.5667 27.5818C17.8223 27.6049 18.0805 27.6295 18.3414 27.6557C19.9159 27.8097 21.5895 27.9715 23.3024 27.9715C25.0152 27.9715 26.6904 27.8081 28.2649 27.6557L29.0397 27.5802C29.5836 27.5279 30.0938 27.293 30.4873 26.9138C30.8808 26.5346 31.1343 26.0334 31.2067 25.4918L31.2538 25.1272C31.4345 23.7868 31.6278 22.3395 31.6278 20.8529C31.6278 19.3664 31.4345 17.9191 31.2554 16.5787L31.2067 16.2157C31.1346 15.6737 30.8812 15.1722 30.4877 14.7927C30.0942 14.4131 29.5838 14.178 29.0397 14.1257C28.784 14.1026 28.5258 14.078 28.2649 14.0518C26.6904 13.8978 25.0152 13.7344 23.3024 13.7344Z" fill="#8FBFFA"/>
<path fill-rule="evenodd" clip-rule="evenodd" d="M26.789 27.7957C26.819 27.6161 26.7857 27.4317 26.6948 27.2739C25.4345 25.0834 23.5708 22.8457 21.344 21.2632C20.0775 20.3612 18.4118 20.4492 17.1923 21.3135C16.383 21.8871 15.7466 22.4387 15.1055 23.1222C15.1762 23.8105 15.2658 24.4815 15.3522 25.1274L15.3993 25.4919C15.4714 26.0341 15.7251 26.5359 16.1189 26.9154C16.5127 27.2949 17.0234 27.5299 17.5679 27.5819C17.8235 27.6039 18.0818 27.6286 18.3426 27.6558C19.9172 27.8082 21.5908 27.9717 23.3036 27.9717C24.4916 27.9717 25.6608 27.8931 26.789 27.7941V27.7957Z" fill="#2859C5"/>
<path d="M26.255 20.683C27.4776 20.683 28.1658 19.9948 28.1658 18.7722C28.1658 17.5496 27.4776 16.8613 26.255 16.8613C25.0324 16.8613 24.3457 17.5496 24.3457 18.7722C24.3457 19.9948 25.0324 20.683 26.255 20.683Z" fill="#2859C5"/>
</g>
<defs>
<clipPath id="clip0_3858_1724">
<rect width="22" height="22" fill="white" transform="translate(10.0215 7.55469)"/>
</clipPath>
</defs>
</svg>
