<svg width="168" height="63" viewBox="0 0 168 63" fill="none" xmlns="http://www.w3.org/2000/svg">
<path d="M22.3278 55.1079C19.6548 55.1079 17.5269 54.3693 15.9442 52.8921C14.3615 51.4149 13.5701 49.2694 13.5701 46.4557C13.5701 44.8026 13.7987 42.9913 14.2559 41.0217C14.7483 39.0169 15.3111 36.9594 15.9442 34.8491C16.6124 32.7388 17.1752 30.6988 17.6324 28.7292C18.1248 26.7596 18.371 24.9834 18.371 23.4007C18.371 22.0642 18.1072 21.1322 17.5796 20.6046C17.0872 20.077 16.3838 19.8132 15.4694 19.8132C14.1328 19.8132 13.0601 20.4991 12.2512 21.8708C11.4422 23.2073 11.0377 24.9834 11.0377 27.1993C11.0377 28.1841 11.1433 29.1513 11.3543 30.1009C11.6005 31.0154 11.9874 32.0002 12.5149 33.0553C12.0577 33.4774 11.5477 33.7763 10.985 33.9522C10.4574 34.1281 9.92983 34.216 9.40226 34.216C8.13608 34.216 7.02818 33.917 6.07854 33.3191C5.16408 32.7212 4.46065 31.9123 3.96825 30.8923C3.51102 29.8371 3.2824 28.6765 3.2824 27.4103C3.2824 26.1089 3.54619 24.8076 4.07376 23.5062C4.60134 22.2049 5.3927 21.0266 6.44785 19.9715C7.53816 18.8812 8.89227 18.0195 10.5102 17.3864C12.1632 16.7533 14.1152 16.4368 16.3662 16.4368C18.4414 16.4368 20.2175 16.7533 21.6947 17.3864C23.1719 17.9843 24.2974 18.8812 25.0712 20.077C25.8801 21.2377 26.2846 22.6797 26.2846 24.4031C26.2846 25.9858 26.0736 27.7268 25.6515 29.6261C25.2295 31.5254 24.7195 33.4598 24.1216 35.4294C23.5588 37.399 23.0488 39.3159 22.5916 41.18C22.1695 43.0089 21.9585 44.6619 21.9585 46.1392C21.9585 47.4757 22.3102 48.5308 23.0137 49.3046C23.7171 50.0432 24.5964 50.4125 25.6515 50.4125C26.8825 50.4125 27.9729 50.008 28.9225 49.1991C29.9073 48.355 30.7338 47.2119 31.4021 45.7699C32.0703 44.2926 32.5803 42.5692 32.932 40.5996L35.8337 24.2448C36.2206 22.1697 36.9416 20.6398 37.9968 19.655C39.0519 18.6702 40.3532 18.1777 41.9008 18.1777C42.4284 18.1777 42.9911 18.2481 43.589 18.3888C44.2221 18.4943 44.8552 18.6702 45.4883 18.9164L40.6346 44.2926C40.4939 45.1368 40.3708 45.8578 40.2653 46.4557C40.195 47.0536 40.1598 47.5988 40.1598 48.0912C40.1598 49.287 40.3708 50.2366 40.7929 50.9401C41.2501 51.6435 42.0063 52.0656 43.0615 52.2062C42.4987 53.1207 41.7074 53.8241 40.6874 54.3165C39.6674 54.8441 38.6298 55.1079 37.5747 55.1079C36.2382 55.1079 35.1127 54.6858 34.1982 53.8417C33.2838 52.9976 32.7034 51.8545 32.4572 50.4125C31.191 51.8897 29.6611 53.0504 27.8673 53.8945C26.0736 54.7034 24.2271 55.1079 22.3278 55.1079ZM68.4402 55.0551C67.0334 55.0551 65.8727 54.6858 64.9582 53.9472C64.0789 53.1735 63.6393 51.9776 63.6393 50.3597C63.6393 49.586 63.7448 48.6187 63.9558 47.4581C64.1669 46.2623 64.4307 44.9961 64.7472 43.6596C65.0637 42.323 65.3627 40.9865 65.6441 39.65C65.9606 38.3135 66.2244 37.0825 66.4354 35.957C66.6816 34.8315 66.8047 33.8994 66.8047 33.1608C66.8047 32.2464 66.5937 31.5078 66.1717 30.945C65.7496 30.3823 65.0989 30.1009 64.2196 30.1009C63.059 30.1009 62.0918 30.5581 61.318 31.4726C60.5442 32.3519 59.9111 33.4598 59.4187 34.7963C58.9263 36.0977 58.557 37.3814 58.3108 38.6476L55.3036 54L47.0207 54.8441L52.4547 27.0937L59.2604 26.2496L58.5218 31.2088C59.5066 29.4151 60.808 28.1137 62.4259 27.3048C64.0789 26.4607 65.8727 26.0386 67.8071 26.0386C70.0229 26.0386 71.7463 26.5486 72.9774 27.5686C74.2435 28.5885 74.8766 30.1537 74.8766 32.264C74.8766 33.2136 74.7711 34.3039 74.5601 35.5349C74.349 36.7308 74.0853 37.9969 73.7687 39.3335C73.4522 40.67 73.1356 41.9713 72.8191 43.2375C72.5377 44.5037 72.2915 45.6819 72.0805 46.7722C71.8694 47.8274 71.7639 48.6891 71.7639 49.3574C71.7639 50.0256 71.9046 50.5884 72.186 51.0456C72.5025 51.4676 73.0477 51.7314 73.8215 51.8369C73.5049 52.9273 72.8191 53.7362 71.7639 54.2638C70.744 54.7914 69.6361 55.0551 68.4402 55.0551ZM82.9588 55.0551C81.5168 55.0551 80.3561 54.6683 79.4768 53.8945C78.5975 53.1207 78.1579 51.9952 78.1579 50.518C78.1579 49.9904 78.2106 49.3046 78.3162 48.4605C78.4217 47.6164 78.5448 46.7371 78.6855 45.8226C78.8613 44.873 79.0372 43.9761 79.213 43.132C79.3889 42.2879 79.5296 41.602 79.6351 41.0744L82.4312 27.0937L90.7141 26.2496L86.5463 47.2998C86.5111 47.5812 86.4584 47.9505 86.388 48.4077C86.3177 48.8298 86.2825 49.1991 86.2825 49.5156C86.2825 50.1135 86.4408 50.6411 86.7573 51.0983C87.1091 51.5204 87.6366 51.7666 88.3401 51.8369C88.0235 52.9273 87.3377 53.7362 86.2825 54.2638C85.2274 54.7914 84.1195 55.0551 82.9588 55.0551ZM87.9708 22.6621C86.5991 22.6621 85.456 22.3456 84.5415 21.7125C83.6622 21.0794 83.2226 20.1649 83.2226 18.9691C83.2226 17.7029 83.6974 16.7533 84.647 16.1202C85.5967 15.452 86.7573 15.1178 88.129 15.1178C89.5007 15.1178 90.6262 15.4344 91.5055 16.0675C92.3848 16.7005 92.8244 17.6326 92.8244 18.8636C92.8244 20.1298 92.3496 21.0794 91.4 21.7125C90.4855 22.3456 89.3424 22.6621 87.9708 22.6621Z" fill="white"/>
<rect x="97" y="12" width="71" height="51" rx="10" fill="url(#paint0_linear_3452_37725)"/>
<path d="M113.625 29.1029C115.486 28.4716 117.413 28.1559 119.407 28.1559C121.401 28.1559 123.054 28.5796 124.366 29.4269C125.679 30.2742 126.335 31.5702 126.335 33.3147C126.335 35.0593 125.721 36.5297 124.491 37.7259C123.262 38.9056 121.783 39.4954 120.055 39.4954C118.792 39.4954 118.161 39.0135 118.161 38.0499C118.161 37.7508 118.219 37.4352 118.335 37.1029C118.784 37.2192 119.191 37.2773 119.557 37.2773C120.703 37.2773 121.567 36.9616 122.148 36.3303C122.747 35.6989 123.046 34.8267 123.046 33.7135C123.046 32.5837 122.73 31.7446 122.099 31.1964C121.467 30.6481 120.587 30.3739 119.457 30.3739C118.875 30.3739 118.169 30.4736 117.338 30.673C117.206 32.7166 117.139 34.5276 117.139 36.106C117.139 40.5255 117.314 43.7238 117.662 45.7009C117.131 45.9003 116.566 46 115.968 46C115.37 46 114.846 45.8089 114.398 45.4268C113.966 45.0447 113.75 44.5379 113.75 43.9066C113.75 43.2752 113.833 42.1786 113.999 40.6169C114.165 39.0385 114.248 37.7758 114.248 36.8287C114.248 33.9378 114.04 31.3625 113.625 29.1029ZM130.781 28.5048C131.479 28.2722 132.11 28.1559 132.675 28.1559C133.539 28.1559 134.212 28.4633 134.694 29.078C135.176 29.6761 135.55 30.5318 135.815 31.645C135.898 31.9772 136.065 32.7083 136.314 33.8381C136.58 34.9679 136.796 35.8817 136.962 36.5795C137.477 38.756 137.942 40.4424 138.357 41.6387C138.789 42.8349 139.471 43.7903 140.401 44.5047C140.202 45.0031 139.869 45.4019 139.404 45.7009C138.956 46 138.465 46.1495 137.934 46.1495C136.721 46.1495 135.832 45.2357 135.267 43.4081C135.001 42.5608 134.76 41.73 134.544 40.9159C133.963 41.1153 133.24 41.215 132.376 41.215C131.529 41.215 130.482 41.1236 129.236 40.9408C128.721 42.9512 128.463 44.4631 128.463 45.4766C128.463 45.6926 128.472 45.8505 128.488 45.9502C128.272 45.9834 127.907 46 127.392 46C126.877 46 126.42 45.8422 126.021 45.5265C125.639 45.1942 125.448 44.729 125.448 44.1309C125.448 43.3001 126.245 40.8661 127.84 36.8287C129.435 32.7914 130.416 30.0167 130.781 28.5048ZM129.809 38.8474C130.474 38.9305 131.147 38.972 131.828 38.972C132.526 38.972 133.265 38.8972 134.046 38.7477C133.896 38.0665 133.39 35.458 132.526 30.9222C131.496 33.5972 130.59 36.2389 129.809 38.8474ZM138.539 29.6014C138.937 28.7374 139.668 28.3054 140.732 28.3054C142.709 28.3054 144.578 31.1465 146.339 36.8287C147.369 35.2836 148.25 33.7135 148.981 32.1185C149.729 30.5069 150.102 29.186 150.102 28.1559C151.864 28.1559 152.744 28.6211 152.744 29.5515C152.744 30.1995 152.345 31.1631 151.548 32.4425C150.75 33.7218 149.886 35.0426 148.956 36.405C148.042 37.7508 147.502 38.7394 147.336 39.3708C147.286 40.0187 147.261 40.8162 147.261 41.7633C147.261 42.7103 147.378 44.0229 147.61 45.7009C147.079 45.9003 146.514 46 145.916 46C145.317 46 144.794 45.8089 144.346 45.4268C143.914 45.0447 143.698 44.5628 143.698 43.9813C143.698 43.3832 143.797 41.8713 143.997 39.4455C142.717 34.4611 140.898 31.1797 138.539 29.6014Z" fill="white"/>
<defs>
<linearGradient id="paint0_linear_3452_37725" x1="131.5" y1="13" x2="132.5" y2="63" gradientUnits="userSpaceOnUse">
<stop stop-color="#F59E0B"/>
<stop offset="0.467818" stop-color="#956F38"/>
<stop offset="1" stop-color="#122354"/>
</linearGradient>
</defs>
</svg>
