<svg width="136" height="15" viewBox="0 0 136 15" fill="none" xmlns="http://www.w3.org/2000/svg">
<path d="M1.59684 1.07859V7.28059C1.59684 8.01793 1.78818 8.57326 2.17084 8.94659C2.56284 9.31993 3.10418 9.50659 3.79484 9.50659C4.49484 9.50659 5.03618 9.31993 5.41884 8.94659C5.81084 8.57326 6.00684 8.01793 6.00684 7.28059V1.07859H7.60284V7.25259C7.60284 8.04593 7.43018 8.71793 7.08484 9.26859C6.73951 9.81926 6.27751 10.2299 5.69884 10.5006C5.12018 10.7713 4.48084 10.9066 3.78084 10.9066C3.08084 10.9066 2.44151 10.7713 1.86284 10.5006C1.29351 10.2299 0.840844 9.81926 0.504844 9.26859C0.168844 8.71793 0.000843763 8.04593 0.000843763 7.25259V1.07859H1.59684ZM11.2769 4.22859C11.5475 3.87393 11.9162 3.57526 12.3829 3.33259C12.8495 3.08993 13.3769 2.96859 13.9649 2.96859C14.6369 2.96859 15.2482 3.13659 15.7989 3.47259C16.3589 3.79926 16.7975 4.26126 17.1149 4.85859C17.4322 5.45593 17.5909 6.14193 17.5909 6.91659C17.5909 7.69126 17.4322 8.38659 17.1149 9.00259C16.7975 9.60926 16.3589 10.0853 15.7989 10.4306C15.2482 10.7666 14.6369 10.9346 13.9649 10.9346C13.3769 10.9346 12.8542 10.8179 12.3969 10.5846C11.9395 10.3419 11.5662 10.0433 11.2769 9.68859V14.4766H9.68086V3.09459H11.2769V4.22859ZM15.9669 6.91659C15.9669 6.38459 15.8549 5.92726 15.6309 5.54459C15.4162 5.15259 15.1269 4.85859 14.7629 4.66259C14.4082 4.45726 14.0255 4.35459 13.6149 4.35459C13.2135 4.35459 12.8309 4.45726 12.4669 4.66259C12.1122 4.86793 11.8229 5.16659 11.5989 5.55859C11.3842 5.95059 11.2769 6.41259 11.2769 6.94459C11.2769 7.47659 11.3842 7.94326 11.5989 8.34459C11.8229 8.73659 12.1122 9.03526 12.4669 9.24059C12.8309 9.44593 13.2135 9.54859 13.6149 9.54859C14.0255 9.54859 14.4082 9.44593 14.7629 9.24059C15.1269 9.02593 15.4162 8.71793 15.6309 8.31659C15.8549 7.91526 15.9669 7.44859 15.9669 6.91659ZM20.7651 0.448594V10.8086H19.1691V0.448594H20.7651ZM26.2065 10.9346C25.4785 10.9346 24.8205 10.7713 24.2325 10.4446C23.6445 10.1086 23.1825 9.64193 22.8465 9.04459C22.5105 8.43793 22.3425 7.73793 22.3425 6.94459C22.3425 6.16059 22.5152 5.46526 22.8605 4.85859C23.2059 4.25193 23.6772 3.78526 24.2745 3.45859C24.8719 3.13193 25.5392 2.96859 26.2765 2.96859C27.0139 2.96859 27.6812 3.13193 28.2785 3.45859C28.8759 3.78526 29.3472 4.25193 29.6925 4.85859C30.0379 5.46526 30.2105 6.16059 30.2105 6.94459C30.2105 7.72859 30.0332 8.42393 29.6785 9.03059C29.3239 9.63726 28.8385 10.1086 28.2225 10.4446C27.6159 10.7713 26.9439 10.9346 26.2065 10.9346ZM26.2065 9.54859C26.6172 9.54859 26.9999 9.45059 27.3545 9.25459C27.7185 9.05859 28.0125 8.76459 28.2365 8.37259C28.4605 7.98059 28.5725 7.50459 28.5725 6.94459C28.5725 6.38459 28.4652 5.91326 28.2505 5.53059C28.0359 5.13859 27.7512 4.84459 27.3965 4.64859C27.0419 4.45259 26.6592 4.35459 26.2485 4.35459C25.8379 4.35459 25.4552 4.45259 25.1005 4.64859C24.7552 4.84459 24.4799 5.13859 24.2745 5.53059C24.0692 5.91326 23.9665 6.38459 23.9665 6.94459C23.9665 7.77526 24.1765 8.41926 24.5965 8.87659C25.0259 9.32459 25.5625 9.54859 26.2065 9.54859ZM31.2563 6.91659C31.2563 6.14193 31.4149 5.45593 31.7323 4.85859C32.0589 4.26126 32.4976 3.79926 33.0483 3.47259C33.6083 3.13659 34.2243 2.96859 34.8963 2.96859C35.5029 2.96859 36.0303 3.08993 36.4783 3.33259C36.9356 3.56593 37.2996 3.85993 37.5703 4.21459V3.09459H39.1803V10.8086H37.5703V9.66059C37.2996 10.0246 36.9309 10.3279 36.4643 10.5706C35.9976 10.8133 35.4656 10.9346 34.8683 10.9346C34.2056 10.9346 33.5989 10.7666 33.0483 10.4306C32.4976 10.0853 32.0589 9.60926 31.7323 9.00259C31.4149 8.38659 31.2563 7.69126 31.2563 6.91659ZM37.5703 6.94459C37.5703 6.41259 37.4583 5.95059 37.2343 5.55859C37.0196 5.16659 36.7349 4.86793 36.3803 4.66259C36.0256 4.45726 35.6429 4.35459 35.2323 4.35459C34.8216 4.35459 34.4389 4.45726 34.0843 4.66259C33.7296 4.85859 33.4403 5.15259 33.2163 5.54459C33.0016 5.92726 32.8943 6.38459 32.8943 6.91659C32.8943 7.44859 33.0016 7.91526 33.2163 8.31659C33.4403 8.71793 33.7296 9.02593 34.0843 9.24059C34.4483 9.44593 34.8309 9.54859 35.2323 9.54859C35.6429 9.54859 36.0256 9.44593 36.3803 9.24059C36.7349 9.03526 37.0196 8.73659 37.2343 8.34459C37.4583 7.94326 37.5703 7.47659 37.5703 6.94459ZM40.7446 6.91659C40.7446 6.14193 40.9032 5.45593 41.2206 4.85859C41.5472 4.26126 41.9859 3.79926 42.5366 3.47259C43.0966 3.13659 43.7172 2.96859 44.3986 2.96859C44.9026 2.96859 45.3972 3.08059 45.8826 3.30459C46.3772 3.51926 46.7692 3.80859 47.0586 4.17259V0.448594H48.6686V10.8086H47.0586V9.64659C46.7972 10.0199 46.4332 10.3279 45.9666 10.5706C45.5092 10.8133 44.9819 10.9346 44.3846 10.9346C43.7126 10.9346 43.0966 10.7666 42.5366 10.4306C41.9859 10.0853 41.5472 9.60926 41.2206 9.00259C40.9032 8.38659 40.7446 7.69126 40.7446 6.91659ZM47.0586 6.94459C47.0586 6.41259 46.9466 5.95059 46.7226 5.55859C46.5079 5.16659 46.2232 4.86793 45.8686 4.66259C45.5139 4.45726 45.1312 4.35459 44.7206 4.35459C44.3099 4.35459 43.9272 4.45726 43.5726 4.66259C43.2179 4.85859 42.9286 5.15259 42.7046 5.54459C42.4899 5.92726 42.3826 6.38459 42.3826 6.91659C42.3826 7.44859 42.4899 7.91526 42.7046 8.31659C42.9286 8.71793 43.2179 9.02593 43.5726 9.24059C43.9366 9.44593 44.3192 9.54859 44.7206 9.54859C45.1312 9.54859 45.5139 9.44593 45.8686 9.24059C46.2232 9.03526 46.5079 8.73659 46.7226 8.34459C46.9466 7.94326 47.0586 7.47659 47.0586 6.94459ZM57.6356 4.39659H56.2076V10.8086H54.5976V4.39659H53.6876V3.09459H54.5976V2.54859C54.5976 1.66193 54.8309 1.01793 55.2976 0.616593C55.7736 0.205927 56.5156 0.000593543 57.5236 0.000593543V1.33059C57.0382 1.33059 56.6976 1.42393 56.5016 1.61059C56.3056 1.78793 56.2076 2.10059 56.2076 2.54859V3.09459H57.6356V4.39659ZM60.646 4.21459C60.8793 3.82259 61.1873 3.51926 61.57 3.30459C61.962 3.08059 62.424 2.96859 62.956 2.96859V4.62059H62.55C61.9247 4.62059 61.4487 4.77926 61.122 5.09659C60.8047 5.41393 60.646 5.96459 60.646 6.74859V10.8086H59.05V3.09459H60.646V4.21459ZM67.769 10.9346C67.041 10.9346 66.383 10.7713 65.795 10.4446C65.207 10.1086 64.745 9.64193 64.409 9.04459C64.073 8.43793 63.905 7.73793 63.905 6.94459C63.905 6.16059 64.0777 5.46526 64.423 4.85859C64.7684 4.25193 65.2397 3.78526 65.837 3.45859C66.4344 3.13193 67.1017 2.96859 67.839 2.96859C68.5764 2.96859 69.2437 3.13193 69.841 3.45859C70.4384 3.78526 70.9097 4.25193 71.255 4.85859C71.6004 5.46526 71.773 6.16059 71.773 6.94459C71.773 7.72859 71.5957 8.42393 71.241 9.03059C70.8864 9.63726 70.401 10.1086 69.785 10.4446C69.1784 10.7713 68.5064 10.9346 67.769 10.9346ZM67.769 9.54859C68.1797 9.54859 68.5624 9.45059 68.917 9.25459C69.281 9.05859 69.575 8.76459 69.799 8.37259C70.023 7.98059 70.135 7.50459 70.135 6.94459C70.135 6.38459 70.0277 5.91326 69.813 5.53059C69.5984 5.13859 69.3137 4.84459 68.959 4.64859C68.6044 4.45259 68.2217 4.35459 67.811 4.35459C67.4004 4.35459 67.0177 4.45259 66.663 4.64859C66.3177 4.84459 66.0424 5.13859 65.837 5.53059C65.6317 5.91326 65.529 6.38459 65.529 6.94459C65.529 7.77526 65.739 8.41926 66.159 8.87659C66.5884 9.32459 67.125 9.54859 67.769 9.54859ZM82.6888 2.96859C83.2954 2.96859 83.8368 3.09459 84.3128 3.34659C84.7981 3.59859 85.1761 3.97193 85.4468 4.46659C85.7268 4.96126 85.8668 5.55859 85.8668 6.25859V10.8086H84.2848V6.49659C84.2848 5.80593 84.1121 5.27859 83.7668 4.91459C83.4214 4.54126 82.9501 4.35459 82.3528 4.35459C81.7554 4.35459 81.2794 4.54126 80.9248 4.91459C80.5794 5.27859 80.4068 5.80593 80.4068 6.49659V10.8086H78.8248V6.49659C78.8248 5.80593 78.6521 5.27859 78.3068 4.91459C77.9614 4.54126 77.4901 4.35459 76.8928 4.35459C76.2954 4.35459 75.8194 4.54126 75.4648 4.91459C75.1194 5.27859 74.9468 5.80593 74.9468 6.49659V10.8086H73.3508V3.09459H74.9468V3.97659C75.2081 3.65926 75.5394 3.41193 75.9408 3.23459C76.3421 3.05726 76.7714 2.96859 77.2288 2.96859C77.8448 2.96859 78.3954 3.09926 78.8808 3.36059C79.3661 3.62193 79.7394 3.99993 80.0008 4.49459C80.2341 4.02793 80.5981 3.65926 81.0928 3.38859C81.5874 3.10859 82.1194 2.96859 82.6888 2.96859ZM93.1304 0.448594V10.8086H91.5344V0.448594H93.1304ZM96.0378 2.07259C95.7484 2.07259 95.5058 1.97459 95.3098 1.77859C95.1138 1.58259 95.0158 1.33993 95.0158 1.05059C95.0158 0.76126 95.1138 0.518593 95.3098 0.322594C95.5058 0.126593 95.7484 0.0285932 96.0378 0.0285932C96.3178 0.0285932 96.5558 0.126593 96.7518 0.322594C96.9478 0.518593 97.0458 0.76126 97.0458 1.05059C97.0458 1.33993 96.9478 1.58259 96.7518 1.77859C96.5558 1.97459 96.3178 2.07259 96.0378 2.07259ZM96.8218 3.09459V10.8086H95.2258V3.09459H96.8218ZM100.513 4.24259C100.784 3.86926 101.153 3.56593 101.619 3.33259C102.095 3.08993 102.623 2.96859 103.201 2.96859C103.883 2.96859 104.499 3.13193 105.049 3.45859C105.6 3.78526 106.034 4.25193 106.351 4.85859C106.669 5.45593 106.827 6.14193 106.827 6.91659C106.827 7.69126 106.669 8.38659 106.351 9.00259C106.034 9.60926 105.595 10.0853 105.035 10.4306C104.485 10.7666 103.873 10.9346 103.201 10.9346C102.604 10.9346 102.072 10.8179 101.605 10.5846C101.148 10.3513 100.784 10.0526 100.513 9.68859V10.8086H98.9172V0.448594H100.513V4.24259ZM105.203 6.91659C105.203 6.38459 105.091 5.92726 104.867 5.54459C104.653 5.15259 104.363 4.85859 103.999 4.66259C103.645 4.45726 103.262 4.35459 102.851 4.35459C102.45 4.35459 102.067 4.45726 101.703 4.66259C101.349 4.86793 101.059 5.16659 100.835 5.55859C100.621 5.95059 100.513 6.41259 100.513 6.94459C100.513 7.47659 100.621 7.94326 100.835 8.34459C101.059 8.73659 101.349 9.03526 101.703 9.24059C102.067 9.44593 102.45 9.54859 102.851 9.54859C103.262 9.54859 103.645 9.44593 103.999 9.24059C104.363 9.02593 104.653 8.71793 104.867 8.31659C105.091 7.91526 105.203 7.44859 105.203 6.91659ZM110.001 4.21459C110.235 3.82259 110.543 3.51926 110.925 3.30459C111.317 3.08059 111.779 2.96859 112.311 2.96859V4.62059H111.905C111.28 4.62059 110.804 4.77926 110.477 5.09659C110.16 5.41393 110.001 5.96459 110.001 6.74859V10.8086H108.405V3.09459H110.001V4.21459ZM113.247 6.91659C113.247 6.14193 113.405 5.45593 113.723 4.85859C114.049 4.26126 114.488 3.79926 115.039 3.47259C115.599 3.13659 116.215 2.96859 116.887 2.96859C117.493 2.96859 118.021 3.08993 118.469 3.33259C118.926 3.56593 119.29 3.85993 119.561 4.21459V3.09459H121.171V10.8086H119.561V9.66059C119.29 10.0246 118.921 10.3279 118.455 10.5706C117.988 10.8133 117.456 10.9346 116.859 10.9346C116.196 10.9346 115.589 10.7666 115.039 10.4306C114.488 10.0853 114.049 9.60926 113.723 9.00259C113.405 8.38659 113.247 7.69126 113.247 6.91659ZM119.561 6.94459C119.561 6.41259 119.449 5.95059 119.225 5.55859C119.01 5.16659 118.725 4.86793 118.371 4.66259C118.016 4.45726 117.633 4.35459 117.223 4.35459C116.812 4.35459 116.429 4.45726 116.075 4.66259C115.72 4.85859 115.431 5.15259 115.207 5.54459C114.992 5.92726 114.885 6.38459 114.885 6.91659C114.885 7.44859 114.992 7.91526 115.207 8.31659C115.431 8.71793 115.72 9.02593 116.075 9.24059C116.439 9.44593 116.821 9.54859 117.223 9.54859C117.633 9.54859 118.016 9.44593 118.371 9.24059C118.725 9.03526 119.01 8.73659 119.225 8.34459C119.449 7.94326 119.561 7.47659 119.561 6.94459ZM124.863 4.21459C125.096 3.82259 125.404 3.51926 125.787 3.30459C126.179 3.08059 126.641 2.96859 127.173 2.96859V4.62059H126.767C126.141 4.62059 125.665 4.77926 125.339 5.09659C125.021 5.41393 124.863 5.96459 124.863 6.74859V10.8086H123.267V3.09459H124.863V4.21459ZM135.584 3.09459L130.852 14.4346H129.2L130.768 10.6826L127.73 3.09459H129.508L131.678 8.97459L133.932 3.09459H135.584Z" fill="black"/>
</svg>
