<svg width="39" height="35" viewBox="0 0 39 35" fill="none" xmlns="http://www.w3.org/2000/svg">
<rect width="38.8125" height="34.5" rx="4.3125" fill="#EBF8FE"/>
<rect width="22" height="22" transform="translate(8 5)" fill="#EBF8FE"/>
<path d="M14.1875 6.375C13.6405 6.375 13.1159 6.5923 12.7291 6.97909C12.3423 7.36589 12.125 7.89049 12.125 8.4375V9.8125H25.1875V8.4375C25.1875 7.89049 24.9702 7.36589 24.5834 6.97909C24.1966 6.5923 23.672 6.375 23.125 6.375H14.1875ZM14.1875 25.625C13.6405 25.625 13.1159 25.4077 12.7291 25.0209C12.3423 24.6341 12.125 24.1095 12.125 23.5625V22.1875H25.1875V23.5625C25.1875 24.1095 24.9702 24.6341 24.5834 25.0209C24.1966 25.4077 23.672 25.625 23.125 25.625H14.1875Z" fill="#7167A4"/>
<path d="M12.125 9.125H25.1875V22.875H12.125V9.125Z" fill="#321B41"/>
<path d="M17.2812 11.875C17.2812 11.6927 17.3537 11.5178 17.4826 11.3889C17.6115 11.2599 17.7864 11.1875 17.9688 11.1875H19.3438C19.5261 11.1875 19.701 11.2599 19.8299 11.3889C19.9588 11.5178 20.0312 11.6927 20.0312 11.875V13.25C20.0312 13.4323 19.9588 13.6072 19.8299 13.7361C19.701 13.8651 19.5261 13.9375 19.3438 13.9375H17.9688C17.7864 13.9375 17.6115 13.8651 17.4826 13.7361C17.3537 13.6072 17.2812 13.4323 17.2812 13.25V11.875ZM13.8438 15.3125C13.8438 15.1302 13.9162 14.9553 14.0451 14.8264C14.174 14.6974 14.3489 14.625 14.5312 14.625H15.9062C16.0886 14.625 16.2635 14.6974 16.3924 14.8264C16.5213 14.9553 16.5938 15.1302 16.5938 15.3125V16.6875C16.5938 16.8698 16.5213 17.0447 16.3924 17.1736C16.2635 17.3026 16.0886 17.375 15.9062 17.375H14.5312C14.3489 17.375 14.174 17.3026 14.0451 17.1736C13.9162 17.0447 13.8438 16.8698 13.8438 16.6875V15.3125ZM17.9688 18.0625C17.7864 18.0625 17.6115 18.1349 17.4826 18.2639C17.3537 18.3928 17.2812 18.5677 17.2812 18.75V20.125C17.2812 20.3073 17.3537 20.4822 17.4826 20.6111C17.6115 20.7401 17.7864 20.8125 17.9688 20.8125H19.3438C19.5261 20.8125 19.701 20.7401 19.8299 20.6111C19.9588 20.4822 20.0312 20.3073 20.0312 20.125V18.75C20.0312 18.5677 19.9588 18.3928 19.8299 18.2639C19.701 18.1349 19.5261 18.0625 19.3438 18.0625H17.9688Z" fill="#00A6ED"/>
<path d="M13.8438 11.875C13.8438 11.6927 13.9162 11.5178 14.0451 11.3889C14.174 11.2599 14.3489 11.1875 14.5312 11.1875H15.9062C16.0886 11.1875 16.2635 11.2599 16.3924 11.3889C16.5213 11.5178 16.5938 11.6927 16.5938 11.875V13.25C16.5938 13.4323 16.5213 13.6072 16.3924 13.7361C16.2635 13.8651 16.0886 13.9375 15.9062 13.9375H14.5312C14.3489 13.9375 14.174 13.8651 14.0451 13.7361C13.9162 13.6072 13.8438 13.4323 13.8438 13.25V11.875ZM13.8438 18.75C13.8438 18.5677 13.9162 18.3928 14.0451 18.2639C14.174 18.1349 14.3489 18.0625 14.5312 18.0625H15.9062C16.0886 18.0625 16.2635 18.1349 16.3924 18.2639C16.5213 18.3928 16.5938 18.5677 16.5938 18.75V20.125C16.5938 20.3073 16.5213 20.4822 16.3924 20.6111C16.2635 20.7401 16.0886 20.8125 15.9062 20.8125H14.5312C14.3489 20.8125 14.174 20.7401 14.0451 20.6111C13.9162 20.4822 13.8438 20.3073 13.8438 20.125V18.75ZM21.4062 14.625C21.2239 14.625 21.049 14.6974 20.9201 14.8264C20.7912 14.9553 20.7188 15.1302 20.7188 15.3125V16.6875C20.7188 16.8698 20.7912 17.0447 20.9201 17.1736C21.049 17.3026 21.2239 17.375 21.4062 17.375H22.7812C22.9636 17.375 23.1385 17.3026 23.2674 17.1736C23.3963 17.0447 23.4688 16.8698 23.4688 16.6875V15.3125C23.4688 15.1302 23.3963 14.9553 23.2674 14.8264C23.1385 14.6974 22.9636 14.625 22.7812 14.625H21.4062Z" fill="#FF822D"/>
<path d="M20.7188 11.875C20.7188 11.6927 20.7912 11.5178 20.9201 11.3889C21.049 11.2599 21.2239 11.1875 21.4062 11.1875H22.7812C22.9636 11.1875 23.1385 11.2599 23.2674 11.3889C23.3963 11.5178 23.4688 11.6927 23.4688 11.875V13.25C23.4688 13.4323 23.3963 13.6072 23.2674 13.7361C23.1385 13.8651 22.9636 13.9375 22.7812 13.9375H21.4062C21.2239 13.9375 21.049 13.8651 20.9201 13.7361C20.7912 13.6072 20.7188 13.4323 20.7188 13.25V11.875ZM17.2812 15.3125C17.2812 15.1302 17.3537 14.9553 17.4826 14.8264C17.6115 14.6974 17.7864 14.625 17.9688 14.625H19.3438C19.5261 14.625 19.701 14.6974 19.8299 14.8264C19.9588 14.9553 20.0312 15.1302 20.0312 15.3125V16.6875C20.0312 16.8698 19.9588 17.0447 19.8299 17.1736C19.701 17.3026 19.5261 17.375 19.3438 17.375H17.9688C17.7864 17.375 17.6115 17.3026 17.4826 17.1736C17.3537 17.0447 17.2812 16.8698 17.2812 16.6875V15.3125ZM21.4062 18.0625C21.2239 18.0625 21.049 18.1349 20.9201 18.2639C20.7912 18.3928 20.7188 18.5677 20.7188 18.75V20.125C20.7188 20.3073 20.7912 20.4822 20.9201 20.6111C21.049 20.7401 21.2239 20.8125 21.4062 20.8125H22.7812C22.9636 20.8125 23.1385 20.7401 23.2674 20.6111C23.3963 20.4822 23.4688 20.3073 23.4688 20.125V18.75C23.4688 18.5677 23.3963 18.3928 23.2674 18.2639C23.1385 18.1349 22.9636 18.0625 22.7812 18.0625H21.4062Z" fill="#FCD53F"/>
</svg>
