<svg width="33" height="11" viewBox="0 0 33 11" fill="none" xmlns="http://www.w3.org/2000/svg">
<path d="M30.5553 10.516L30.2459 8.96912H26.7891L26.2391 10.505L23.4685 10.5105C25.2496 6.23058 26.5714 3.06029 27.434 0.999625C27.6595 0.460625 28.0596 0.185626 28.6495 0.189751C29.1005 0.193417 29.8366 0.193875 30.8577 0.191125L33 10.5119L30.5553 10.516ZM27.566 6.85025H29.7949L28.963 2.97275L27.566 6.85025ZM9.71025 0.188375L12.496 0.191125L8.1895 10.5174L5.36937 10.5146C4.66022 7.78706 3.95988 5.05722 3.26838 2.32512C3.13088 1.78062 2.85862 1.39975 2.33475 1.21963C1.86633 1.05921 1.08808 0.81125 0 0.47575V0.191125H4.45087C5.22087 0.191125 5.6705 0.563751 5.81488 1.32825C5.96063 2.09458 6.32729 4.04433 6.91487 7.1775L9.71025 0.188375ZM16.324 0.191125L14.1226 10.516L11.4703 10.5119L13.6675 0.188375L16.324 0.191125ZM21.7002 0C22.4936 0 23.4932 0.2475 24.068 0.47575L23.6033 2.61525C23.0835 2.40625 22.2282 2.12438 21.5091 2.134C20.4641 2.15188 19.8179 2.5905 19.8179 3.01125C19.8179 3.696 20.9399 4.04112 22.0949 4.78912C23.4121 5.64162 23.5868 6.4075 23.5702 7.24075C23.5524 8.96637 22.0949 10.67 19.0204 10.67C17.6179 10.6494 17.1119 10.5325 15.9679 10.1255L16.4519 7.8925C17.6165 8.37925 18.1101 8.53463 19.1056 8.53463C20.0173 8.53463 20.7996 8.16613 20.8065 7.524C20.812 7.0675 20.5315 6.84063 19.5085 6.27688C18.4855 5.71313 17.05 4.93075 17.0693 3.35912C17.0926 1.34887 18.997 0 21.7002 0Z" fill="white"/>
</svg>
