<svg width="15" height="15" viewBox="0 0 15 15" fill="none" xmlns="http://www.w3.org/2000/svg">
<path d="M11.873 7.5C11.873 7.66576 11.8072 7.82473 11.69 7.94194C11.5728 8.05915 11.4138 8.125 11.248 8.125C11.0823 8.125 10.9233 8.05915 10.8061 7.94194C10.6889 7.82473 10.623 7.66576 10.623 7.5C10.623 7.33424 10.6889 7.17527 10.8061 7.05806C10.9233 6.94085 11.0823 6.875 11.248 6.875C11.4138 6.875 11.5728 6.94085 11.69 7.05806C11.8072 7.17527 11.873 7.33424 11.873 7.5Z" fill="white"/>
<path fill-rule="evenodd" clip-rule="evenodd" d="M6.21305 2.03125H8.15805C9.3068 2.03125 10.2168 2.03125 10.9287 2.12688C11.6612 2.22563 12.2543 2.43312 12.7224 2.90062C13.2999 3.47875 13.4843 4.2525 13.5512 5.25688C13.9118 5.415 14.1843 5.75062 14.2137 6.17562C14.2168 6.21375 14.2168 6.25438 14.2168 6.29188V8.70812C14.2168 8.74562 14.2168 8.78625 14.2143 8.82375C14.1843 9.24875 13.9118 9.585 13.5512 9.74375C13.4843 10.7475 13.2999 11.5212 12.7224 12.0994C12.2543 12.5669 11.6612 12.7744 10.9287 12.8731C10.2162 12.9688 9.3068 12.9688 8.15805 12.9688H6.21305C5.0643 12.9688 4.1543 12.9688 3.44242 12.8731C2.70992 12.7744 2.1168 12.5669 1.64867 12.0994C1.18117 11.6312 0.973672 11.0381 0.874922 10.3056C0.779297 9.59313 0.779297 8.68375 0.779297 7.535V7.465C0.779297 6.31625 0.779297 5.40625 0.874922 4.69438C0.973672 3.96188 1.18117 3.36875 1.64867 2.90062C2.1168 2.43312 2.70992 2.22563 3.44242 2.12688C4.15492 2.03125 5.0643 2.03125 6.21305 2.03125ZM12.603 9.84375H11.3918C10.0512 9.84375 8.90367 8.82625 8.90367 7.5C8.90367 6.17375 10.0512 5.15625 11.3912 5.15625H12.6024C12.5312 4.31813 12.3705 3.875 12.0587 3.56375C11.7943 3.29938 11.4318 3.14062 10.803 3.05625C10.1612 2.97 9.3143 2.96875 8.12242 2.96875H6.24742C5.05555 2.96875 4.2093 2.97 3.56617 3.05625C2.93805 3.14062 2.57555 3.29938 2.31117 3.56375C2.0468 3.82813 1.88867 4.19062 1.8043 4.81875C1.71805 5.46125 1.7168 6.3075 1.7168 7.49937C1.7168 8.69125 1.71805 9.53812 1.8043 10.1806C1.88867 10.8088 2.04742 11.1713 2.3118 11.4356C2.57617 11.7 2.93867 11.8587 3.56742 11.9431C4.20992 12.0294 5.05617 12.0306 6.24805 12.0306H8.12305C9.31492 12.0306 10.1618 12.0294 10.8043 11.9431C11.4324 11.8587 11.7949 11.7 12.0593 11.4356C12.3712 11.1244 12.5318 10.6819 12.603 9.84312M3.2793 5C3.2793 4.87568 3.32868 4.75645 3.41659 4.66854C3.5045 4.58064 3.62373 4.53125 3.74805 4.53125H6.24805C6.37237 4.53125 6.4916 4.58064 6.5795 4.66854C6.66741 4.75645 6.7168 4.87568 6.7168 5C6.7168 5.12432 6.66741 5.24355 6.5795 5.33146C6.4916 5.41936 6.37237 5.46875 6.24805 5.46875H3.74805C3.62373 5.46875 3.5045 5.41936 3.41659 5.33146C3.32868 5.24355 3.2793 5.12432 3.2793 5ZM13.0755 6.09375H11.3918C10.5018 6.09375 9.84117 6.75562 9.84117 7.5C9.84117 8.24438 10.5018 8.90625 11.3912 8.90625H13.0899C13.2187 8.89813 13.2743 8.81125 13.2787 8.75875V6.24125C13.2743 6.18875 13.2187 6.10188 13.0899 6.09438L13.0755 6.09375Z" fill="#F59E0B"/>
</svg>
